<?xml version="1.0" encoding="UTF-8" standalone="no"?>
<svg
   inkscape:export-ydpi="394.54666"
   inkscape:export-xdpi="394.54666"
   inkscape:export-filename="/Users/celineauzias/Dropbox/artwork/N2I/2020/n2i2020_affiche_hd.png"
   width="723.89349"
   height="641.37195"
   viewBox="0 0 191.53015 169.69633"
   version="1.1"
   id="svg1295"
   inkscape:version="1.1.1 (c3084ef, 2021-09-22)"
   sodipodi:docname="N2I2022-couleurs.svg"
   xmlns:inkscape="http://www.inkscape.org/namespaces/inkscape"
   xmlns:sodipodi="http://sodipodi.sourceforge.net/DTD/sodipodi-0.dtd"
   xmlns="http://www.w3.org/2000/svg"
   xmlns:svg="http://www.w3.org/2000/svg"
   xmlns:rdf="http://www.w3.org/1999/02/22-rdf-syntax-ns#"
   xmlns:cc="http://creativecommons.org/ns#"
   xmlns:dc="http://purl.org/dc/elements/1.1/">
  <defs
     id="defs1289" />
  <sodipodi:namedview
     units="px"
     id="base"
     pagecolor="#ffffff"
     bordercolor="#666666"
     borderopacity="1.0"
     inkscape:pageopacity="0.0"
     inkscape:pageshadow="2"
     inkscape:zoom="0.5"
     inkscape:cx="195"
     inkscape:cy="427"
     inkscape:document-units="px"
     inkscape:current-layer="layer1"
     inkscape:document-rotation="0"
     showgrid="false"
     inkscape:window-width="1440"
     inkscape:window-height="855"
     inkscape:window-x="0"
     inkscape:window-y="23"
     inkscape:window-maximized="1"
     inkscape:snap-global="false"
     inkscape:pagecheckerboard="0"
     showguides="false"
     fit-margin-top="0"
     fit-margin-left="0"
     fit-margin-right="0"
     fit-margin-bottom="0">
    <inkscape:grid
       type="xygrid"
       id="grid3480"
       originx="-8.707794"
       originy="-65.914053" />
    <sodipodi:guide
       position="-1027.3945,-316.74858"
       orientation="1,0"
       id="guide18337" />
  </sodipodi:namedview>
  <metadata
     id="metadata1292">
    <rdf:RDF>
      <cc:Work
         rdf:about="">
        <dc:format>image/svg+xml</dc:format>
        <dc:type
           rdf:resource="http://purl.org/dc/dcmitype/StillImage" />
      </cc:Work>
    </rdf:RDF>
  </metadata>
  <g
     inkscape:label="Calque 1"
     inkscape:groupmode="layer"
     id="layer1"
     transform="translate(-8.7077942,-65.914052)">
    <g
       id="g405771"
       style="stroke:#e8f1f2;stroke-opacity:1"
       transform="matrix(0.96029349,-0.15740222,0.15740222,0.96029349,-24.830445,46.480902)">
      <path
         id="path21865"
         style="color:#000000;-inkscape-font-specification:'Cubano, Normal';fill:#e8f1f2;stroke:none;stroke-width:3.67789;-inkscape-stroke:none"
         d="m 370.15234,600.61133 c -1.92304,0.008 -3.98165,0.18238 -6.18164,0.54297 -11.52773,1.88951 -17.7216,7.63912 -20.3164,13.76953 -2.59481,6.13037 -1.86668,12.27606 -1.33985,15.49023 l 3.74024,22.82617 c 0.49364,3.01169 1.64686,8.50829 5.41992,13.29883 a 2.8908018,2.8908018 0 0 0 4.06055,0.47852 2.8908018,2.8908018 0 0 0 0.48437,-4.0625 c -2.76995,-3.51695 -3.83198,-8.01476 -4.26367,-10.64844 l -3.74219,-22.82617 c -0.46071,-2.81076 -0.91508,-7.86062 0.9668,-12.30664 1.88187,-4.44606 5.8184,-8.6558 15.92578,-10.3125 5.14377,-0.84312 9.00964,-0.48199 11.95117,0.48633 a 2.8908018,2.8908018 0 0 0 3.64453,-1.8418 2.8908018,2.8908018 0 0 0 -1.83593,-3.64453 c -2.48071,-0.81663 -5.3086,-1.26397 -8.51368,-1.25 z m 15.80274,6.75195 a 2.8908018,2.8908018 0 0 0 -1.79688,0.64453 2.8908018,2.8908018 0 0 0 -0.41797,4.06446 c 2.87346,3.54414 3.9576,8.15443 4.39649,10.83203 l 3.74023,22.82617 c 0.46072,2.81079 0.92079,7.85279 -0.96093,12.29883 -1.88188,4.44606 -5.82426,8.65579 -15.93164,10.3125 -5.47791,0.89788 -9.4967,0.43531 -12.50782,-0.67969 a 2.8908018,2.8908018 0 0 0 -3.71679,1.70898 2.8908018,2.8908018 0 0 0 1.70703,3.70899 c 4.10067,1.51842 9.2035,1.99281 15.45117,0.96875 11.52769,-1.88951 17.72358,-7.63132 20.31836,-13.76172 2.59481,-6.13041 1.8745,-12.27798 1.34765,-15.49219 l -3.74218,-22.82617 c -0.50189,-3.06195 -1.69084,-8.69226 -5.61719,-13.53516 a 2.8908018,2.8908018 0 0 0 -2.26953,-1.07031 z m -55.73633,1.09375 c -0.36732,0.004 -0.72714,0.0388 -1.07422,0.0957 l -39.25781,6.4336 c -1.36768,0.22417 -2.82388,0.87422 -3.76758,2.15429 -0.9437,1.28008 -1.14551,2.91962 -0.91016,4.35547 l 1.7754,10.83203 a 2.8906179,2.8906179 0 0 0 3.32421,2.38086 2.8906179,2.8906179 0 0 0 2.38282,-3.3164 l -1.75586,-10.71875 39.02929,-6.39649 1.63868,9.99414 -22.89649,3.75391 c -1.36768,0.22418 -2.82387,0.87227 -3.76758,2.15234 -0.9437,1.28008 -1.13574,2.91962 -0.90039,4.35547 l 0.47852,2.92188 c 0.23238,1.41774 0.94307,2.86714 2.21289,3.7793 1.26983,0.91218 2.87135,1.13081 4.28906,0.89843 l 14.95117,-2.45117 1.63672,9.99414 -14.94922,2.45117 c -1.36767,0.22418 -2.82388,0.87419 -3.76758,2.1543 -0.9437,1.28008 -1.13769,2.91767 -0.90234,4.35352 l 2.10742,12.85937 a 2.8906179,2.8906179 0 0 0 3.31836,2.38281 2.8906179,2.8906179 0 0 0 2.38086,-3.3164 l -2.08789,-12.7461 14.94922,-2.44922 c 1.43585,-0.23535 2.92607,-0.95091 3.83789,-2.2539 0.91182,-1.30299 1.06402,-2.88821 0.83984,-4.25586 l -1.67578,-10.22266 c -0.22755,-1.38826 -0.87173,-2.88431 -2.18554,-3.82812 -1.31381,-0.94378 -2.93592,-1.07522 -4.32422,-0.84766 l -14.95117,2.44922 -0.44141,-2.69336 22.89648,-3.75195 c 1.43584,-0.23535 2.92022,-0.94897 3.83204,-2.25196 0.91181,-1.30299 1.06206,-2.89012 0.83789,-4.25781 l -1.67579,-10.22265 c -0.22755,-1.38831 -0.86979,-2.87654 -2.18359,-3.82032 -0.98535,-0.7078 -2.14218,-0.96329 -3.24414,-0.95117 z m 38.49219,8.1875 c -0.69867,0.0159 -1.41947,0.0886 -2.16602,0.21094 -1.99079,0.32631 -3.7005,0.92447 -5.10156,1.96484 -1.40111,1.04031 -2.37334,2.54398 -2.83984,4.08399 -0.93305,3.08006 -0.38698,6.20297 0.19921,9.77929 l 2.1543,13.14258 c 0.5862,3.57632 1.06557,6.7111 2.93359,9.33203 0.93375,1.31053 2.33424,2.4165 3.99415,2.95508 1.65986,0.53858 3.47014,0.56069 5.46093,0.23438 1.9908,-0.32632 3.70637,-0.92639 5.10742,-1.9668 1.40111,-1.04031 2.36745,-2.53417 2.83399,-4.07422 0.93301,-3.08005 0.38698,-6.20298 -0.19922,-9.7793 a 2.8908018,2.8908018 0 0 0 -3.31641,-2.38281 2.8908018,2.8908018 0 0 0 -2.38867,3.31641 c 0.56595,3.45281 0.71727,6.03132 0.37305,7.16797 -0.1722,0.56837 -0.33153,0.80402 -0.74805,1.11328 -0.4165,0.3094 -1.2108,0.67112 -2.59765,0.89843 -1.38682,0.22732 -2.24679,0.13663 -2.74024,-0.0234 -0.49351,-0.16024 -0.72962,-0.33079 -1.07422,-0.81446 -0.68922,-0.96725 -1.36764,-3.45929 -1.93359,-6.91211 l -2.1543,-13.14257 c -0.56595,-3.45281 -0.71726,-6.02934 -0.37304,-7.16602 0.1722,-0.56834 0.3393,-0.81183 0.75585,-1.12109 0.4165,-0.30941 1.20303,-0.67113 2.58985,-0.89844 1.38685,-0.22732 2.25459,-0.13667 2.74805,0.0234 0.49347,0.16025 0.72181,0.33863 1.0664,0.82226 0.6892,0.9673 1.36761,3.45736 1.9336,6.91016 l 0.58007,3.53906 a 2.8908018,2.8908018 0 0 0 3.32422,2.38867 2.8908018,2.8908018 0 0 0 2.38086,-3.32421 l -0.58008,-3.53711 c -0.58619,-3.57632 -1.06557,-6.7111 -2.93359,-9.33204 -0.93377,-1.31048 -2.32642,-2.42626 -3.98633,-2.96484 -1.03741,-0.33661 -2.13829,-0.46992 -3.30273,-0.44336 z m -98.13477,1.58985 c -0.36798,0.004 -0.73104,0.0368 -1.07812,0.0937 l -10.22071,1.67579 c -1.36771,0.22418 -2.82383,0.87417 -3.76757,2.15429 -0.94374,1.28012 -1.14552,2.91959 -0.91016,4.35547 l 2.93555,17.89844 -11.2461,-18.33399 -0.0195,-0.0332 c -1.31463,-2.02849 -4.10252,-3.23624 -6.4375,-2.85351 l -13.41797,2.19921 c -1.36771,0.22419 -2.82383,0.87418 -3.76758,2.1543 -0.94374,1.28012 -1.14551,2.91959 -0.91015,4.35547 l 1.93945,11.82422 5.70508,-0.93555 -1.91797,-11.71094 13.30469,-2.17968 c 0.76879,-0.12602 0.20245,-0.38936 0.64453,0.29297 l 17.38477,28.34375 0.0195,0.0332 c 0.34294,0.5227 0.82272,1.03927 1.5625,1.39648 0.73977,0.35721 1.82937,0.48291 2.77148,0.0762 1.88423,-0.81344 2.18778,-2.76334 1.98828,-3.98047 l -4.8125,-29.36719 9.99414,-1.63867 6.32227,38.5625 5.70508,-0.93555 -6.33985,-38.67578 c -0.22756,-1.38834 -0.86973,-2.87651 -2.18359,-3.82031 -0.98549,-0.70851 -2.1441,-0.9636 -3.24805,-0.95117 z m -63.35351,10.38281 c -0.36732,0.004 -0.72909,0.0388 -1.07618,0.0957 l -10.04492,1.64649 c -1.36771,0.22418 -2.82383,0.87222 -3.76758,2.15234 -0.94374,1.28012 -1.1377,2.91958 -0.90234,4.35547 L 197.19141,672 l 5.69921,-0.93555 -5.74023,-35.01757 9.81836,-1.60938 9.53906,58.19922 -9.81836,1.60937 -2.22656,-13.58203 -5.69922,0.9336 2.2461,13.69531 c 0.23238,1.41777 0.94301,2.86708 2.21289,3.7793 1.26987,0.91221 2.86935,1.12301 4.28711,0.89062 l 10.04492,-1.64648 c 1.43587,-0.23536 2.92799,-0.94111 3.83984,-2.24414 0.91186,-1.30304 1.06208,-2.89009 0.83789,-4.25782 l -9.57617,-58.42578 c -0.22756,-1.38834 -0.87755,-2.87455 -2.19141,-3.81836 -0.98539,-0.70785 -2.14023,-0.96526 -3.24218,-0.95312 z m -29.08985,0.11719 c -0.45836,-0.008 -0.91185,0.0324 -1.3457,0.10351 l -8.40039,1.375 c -1.36771,0.22418 -2.78957,0.82539 -3.78711,2.11328 -0.99755,1.28782 -1.23429,3.1348 -0.82031,4.67774 l 0.006,0.0351 4.27148,14.56446 0.0156,0.0488 c 0.37629,1.13908 0.94186,2.34527 2.12304,3.26368 1.18119,0.9184 2.86154,1.20504 4.2793,0.97265 l 4.74805,-0.77929 c 1.43587,-0.23536 2.97468,-1.0452 3.79882,-2.32618 0.82414,-1.28101 0.91494,-2.58038 0.90821,-3.73047 l 0.004,-0.0664 -0.35156,-6.58789 a 2.8908018,2.8908018 0 0 0 -3.04492,-2.72461 2.8908018,2.8908018 0 0 0 -2.72656,3.03711 l 0.33789,6.37304 c 0.002,0.37424 0.0157,0.28205 0.006,0.3418 l -4.47461,0.73242 c -0.0215,-0.0382 -0.003,-0.006 -0.10547,-0.29492 -0.01,-0.0282 -0.002,0.003 -0.0117,-0.0273 l -4.08984,-13.93946 8.25,-1.35351 c 0.0636,-0.0104 0.11375,-0.0152 0.15625,-0.0195 a 2.8908018,2.8908018 0 0 0 2.74218,2.33984 2.8908018,2.8908018 0 0 0 2.70899,-3.06445 c -0.0973,-1.54674 -0.8428,-3.22512 -2.21094,-4.15821 -0.94059,-0.64149 -1.97793,-0.88844 -2.98633,-0.90624 z m 113.46094,9.84179 a 2.8906179,2.8906179 0 0 0 -0.64453,0.0332 2.8906179,2.8906179 0 0 0 -2.39063,3.3164 l 6.22852,37.9961 c 0.23238,1.41773 0.95087,2.86515 2.2207,3.77734 1.26983,0.91219 2.86939,1.12496 4.28711,0.89258 l 10.77539,-1.76563 a 2.8906179,2.8906179 0 0 0 2.38281,-3.31836 2.8906179,2.8906179 0 0 0 -3.3164,-2.38281 l -10.66211,1.74805 -6.20899,-37.88282 a 2.8906179,2.8906179 0 0 0 -2.67187,-2.41406 z m -162.28516,2.8125 c -0.36731,0.004 -0.72713,0.0369 -1.07421,0.0937 l -10.22266,1.67578 c -1.36771,0.22419 -2.82383,0.87418 -3.76758,2.1543 -0.94374,1.28012 -1.14356,2.91958 -0.9082,4.35547 l 9.57617,58.42578 c 0.23239,1.41777 0.94301,2.86708 2.21289,3.7793 1.26988,0.91221 2.87717,1.12301 4.29492,0.89062 l 36.06055,-5.91015 c 1.38833,-0.22757 2.87651,-0.87169 3.82031,-2.18555 0.9438,-1.3139 1.07913,-2.92807 0.85156,-4.31641 L 168.47461,690.123 c -0.22756,-1.38831 -0.86974,-2.87651 -2.18359,-3.82032 -1.31386,-0.9438 -2.93003,-1.07912 -4.31836,-0.85156 l -20.24414,3.31836 -1.36524,-8.32226 -5.70703,0.93554 1.38281,8.43555 c 0.23238,1.41774 0.94497,2.86708 2.21485,3.7793 1.26987,0.91218 2.87716,1.12301 4.29492,0.89062 l 20.23828,-3.31836 1.63867,10.00391 -35.82617,5.87109 -9.53906,-58.19922 9.99414,-1.63672 4.02734,24.56836 5.70703,-0.93554 -4.04492,-24.68164 c -0.22756,-1.38834 -0.87755,-2.87651 -2.19141,-3.82032 -0.98539,-0.70785 -2.14218,-0.9633 -3.24414,-0.95117 z m 101.33203,9.08399 -5.70507,0.93554 6.3789,38.91797 c 0.23239,1.41778 0.95083,2.86513 2.22071,3.77735 1.26987,0.91221 2.86935,1.12496 4.28711,0.89257 l 10.22265,-1.67578 c 1.43588,-0.23535 2.92604,-0.94306 3.83789,-2.24609 0.91186,-1.30303 1.06208,-2.89009 0.83789,-4.25781 l -2.93554,-17.91993 11.25586,18.35547 0.0176,0.0254 c 1.31474,2.02933 4.09472,3.2382 6.42969,2.85547 l 13.41992,-2.19922 c 1.43588,-0.23535 2.92798,-0.9411 3.83985,-2.24414 0.91186,-1.30303 1.06207,-2.89009 0.83789,-4.25781 l -1.66406,-10.14453 -5.70508,0.93555 1.64258,10.03125 -13.30469,2.17968 c -0.76879,0.12602 -0.20439,0.38173 -0.64649,-0.30078 l -17.375,-28.33789 -0.0293,-0.0391 c -0.34295,-0.52266 -0.81502,-1.03929 -1.55469,-1.39648 -0.73967,-0.3572 -1.83527,-0.47683 -2.77734,-0.0703 -1.88415,0.81298 -2.18975,2.7574 -1.99024,3.97461 l 4.81445,29.375 -9.99414,1.63867 z"
         transform="matrix(0.26831469,0.0439796,-0.0439796,0.26831469,32.906777,-43.009041)" />
    </g>
    <g
       id="g24459"
       transform="matrix(0.97083511,-0.1591301,0.1591301,0.97083511,-26.271243,45.363334)"
       style="stroke:#e9eff1">
      <path
         id="path21849"
         style="color:#000000;-inkscape-font-specification:'Cubano, Normal';fill:#e9eff1;stroke:none;stroke-width:3.71826;stroke-linecap:round;-inkscape-stroke:none"
         d="m 633.54492,443.01562 c -0.39977,0.005 -0.79423,0.0416 -1.17187,0.10352 l -41.7168,6.83789 c -1.48819,0.24393 -3.07078,0.94888 -4.09766,2.3418 -1.02685,1.39287 -1.24436,3.17788 -0.98828,4.74023 l 2.23633,13.64453 a 3.1454268,3.1454268 0 0 0 3.61133,2.59375 3.1454268,3.1454268 0 0 0 2.5957,-3.61132 l -2.21679,-13.52344 41.47265,-6.79688 1.7832,10.87891 -23.91601,3.91992 c -1.4882,0.24393 -3.07078,0.94888 -4.09766,2.3418 -1.02685,1.39287 -1.24436,3.17593 -0.98828,4.73828 l 0.52149,3.18359 c 0.25285,1.54261 1.02844,3.11488 2.41015,4.10742 1.38171,0.99256 3.12728,1.22552 4.66992,0.97266 l 15.27149,-2.5039 1.7832,10.8789 -15.27148,2.50391 c -1.4882,0.24393 -3.07077,0.94892 -4.09766,2.34179 -1.02685,1.39288 -1.24632,3.17594 -0.99023,4.73829 l 0.52148,3.18359 c 0.25286,1.54265 1.02844,3.11484 2.41016,4.10742 1.38171,0.99255 3.12923,1.22551 4.67187,0.97266 l 23.91406,-3.91992 0.85938,5.23828 a 3.1454268,3.1454268 0 0 0 3.61328,2.60156 3.1454268,3.1454268 0 0 0 2.5918,-3.61914 l -0.87696,-5.36133 c -0.2476,-1.51061 -0.95322,-3.12931 -2.38281,-4.15625 -1.42958,-1.02694 -3.18864,-1.17729 -4.69922,-0.92969 l -23.91601,3.91993 -0.48047,-2.93165 15.27344,-2.5039 c 1.56235,-0.25609 3.18361,-1.02554 4.17578,-2.44336 0.99221,-1.41779 1.15408,-3.15052 0.91015,-4.63867 l -1.82226,-11.1211 c -0.24761,-1.51061 -0.95323,-3.13126 -2.38281,-4.1582 -1.42959,-1.02694 -3.18861,-1.17729 -4.69922,-0.92969 l -15.27149,2.50391 -0.48047,-2.93164 23.91407,-3.91992 c 1.56231,-0.25608 3.18556,-1.02558 4.17773,-2.44336 0.99217,-1.41782 1.15408,-3.15051 0.91016,-4.63868 l -1.82422,-11.12304 c -0.24761,-1.51062 -0.95128,-3.12932 -2.38086,-4.15625 -1.07219,-0.7702 -2.32997,-1.04728 -3.5293,-1.03321 z m -77.42773,13.22461 c -2.61621,0.006 -5.44567,0.26986 -8.49414,0.76954 l -22.23243,3.64453 -0.0703,0.0195 c -1.47098,0.31722 -3.02542,1.05085 -4.01758,2.46875 -0.99215,1.41789 -1.1519,3.17103 -0.90429,4.68164 l 5.16406,31.49609 a 3.1454268,3.1454268 0 0 0 3.61133,2.59571 3.1454268,3.1454268 0 0 0 2.60156,-3.61329 l -5.16016,-31.47656 c 0.003,7.8e-4 0.0103,9e-5 0.0293,-0.004 l 21.99609,-3.60547 c 8.91857,-1.46185 14.44152,-0.53004 18.00782,2.0664 3.56633,2.5964 5.84822,7.35759 7.11914,15.11133 l 3.5664,21.75195 c 1.27092,7.75374 0.62797,13.01984 -1.92382,16.64454 -2.5518,3.62465 -7.47757,6.28905 -16.39063,7.75 l -22.02344,3.60937 -3.18554,-19.43555 a 3.1454268,3.1454268 0 0 0 -3.61914,-2.59375 3.1454268,3.1454268 0 0 0 -2.59375,3.61133 l 3.20507,19.5586 c 0.25286,1.54264 1.03036,3.12265 2.41211,4.11523 1.38171,0.99255 3.12732,1.22551 4.66993,0.97266 l 22.15234,-3.63086 c 9.76063,-1.59987 16.62195,-4.79218 20.52344,-10.33399 3.90145,-5.5418 4.37766,-12.74908 2.97851,-21.28515 l -3.56445,-21.75 c -1.39915,-8.53608 -4.15168,-15.19718 -9.61914,-19.17774 -3.75889,-2.73665 -8.48262,-3.97405 -14.23828,-3.96094 z m -83.66407,13.17969 c -0.39977,0.005 -0.79226,0.0416 -1.16992,0.10352 l -50.86132,8.33594 c -1.48822,0.24393 -3.07078,0.94888 -4.09766,2.34179 -1.02685,1.39287 -1.24632,3.17789 -0.99024,4.74024 l 1.82422,11.12304 c 0.25285,1.54261 1.02845,3.12269 2.41016,4.11524 1.38171,0.99254 3.12923,1.22356 4.67187,0.9707 l 13.78125,-2.25781 7.59766,46.36133 c 0.25286,1.54264 1.03039,3.12265 2.41211,4.11523 1.38175,0.99254 3.12728,1.22356 4.66992,0.9707 l 11.13086,-1.82422 c 1.56235,-0.25608 3.18361,-1.02557 4.17578,-2.44335 0.9922,-1.41783 1.15408,-3.15052 0.91016,-4.63868 l -2.375,-14.49023 a 3.1454269,3.1454269 0 0 0 -3.61914,-2.59375 3.1454269,3.1454269 0 0 0 -2.59375,3.61133 l 2.35547,14.36914 -10.87305,1.7832 -7.59766,-46.36133 c -0.2476,-1.51061 -0.95322,-3.13126 -2.38281,-4.1582 -1.42955,-1.02694 -3.18857,-1.1773 -4.69922,-0.92969 l -13.78125,2.25977 -1.7832,-10.87891 50.60352,-8.29492 1.7832,10.87891 -13.78125,2.25976 c -1.4882,0.24393 -3.07081,0.94889 -4.09766,2.3418 -1.02681,1.39287 -1.24632,3.17788 -0.99023,4.74023 l 3.20898,19.57813 a 3.1454269,3.1454269 0 0 0 3.61133,2.5957 3.1454269,3.1454269 0 0 0 2.60156,-3.61328 l -3.1875,-19.45703 13.78125,-2.25977 c 1.56235,-0.25608 3.18361,-1.02557 4.17578,-2.44336 0.99217,-1.41782 1.15408,-3.15051 0.91016,-4.63867 l -1.82227,-11.12304 c -0.2476,-1.51064 -0.95322,-3.1293 -2.38281,-4.15626 -1.07216,-0.7702 -2.32994,-1.04728 -3.5293,-1.0332 z m 82.02735,4.2207 c -1.2521,-0.0116 -2.50121,0.20027 -3.75781,0.40626 l -5.36719,0.8789 c -1.4882,0.24393 -3.07081,0.94889 -4.09766,2.3418 -1.02685,1.39287 -1.24632,3.17788 -0.99023,4.74023 l 4.82031,29.4043 c 0.25286,1.54265 1.02844,3.11679 2.41016,4.10937 1.38171,0.99255 3.12731,1.22356 4.66992,0.97071 l 5.36914,-0.87891 c 2.55633,-0.41901 5.06885,-0.89025 6.99219,-3.00195 1.9233,-2.11193 2.20274,-5.1395 1.64648,-8.53321 l -2.00781,-12.24804 a 3.1454268,3.1454268 0 0 0 -3.61133,-2.5957 3.1454268,3.1454268 0 0 0 -2.60156,3.61328 l 2.00781,12.24804 c 0.42059,2.56598 0.0633,3.10931 -0.0879,3.27539 -0.15137,0.16611 -1.14402,0.67268 -3.35547,1.03516 l -5.24023,0.85937 -4.77735,-29.15429 5.23828,-0.85938 c 2.25453,-0.36954 3.38876,-0.22436 3.53711,-0.14453 0.14839,0.0801 0.66446,0.45806 1.10352,3.13672 a 3.1454268,3.1454268 0 0 0 3.61914,2.59375 3.1454268,3.1454268 0 0 0 2.5957,-3.61133 c -0.57036,-3.4797 -1.80314,-6.28934 -4.33984,-7.65625 -1.26833,-0.68343 -2.52329,-0.91805 -3.77539,-0.92969 z m 38.6582,5.8086 a 3.1454268,3.1454268 0 0 0 -0.70312,0.0352 3.1454268,3.1454268 0 0 0 -2.59375,3.61132 l 6.14843,37.50977 c 0.25286,1.54265 1.02844,3.1246 2.41016,4.11719 1.38171,0.99254 3.12728,1.22356 4.66992,0.9707 l 41.7168,-6.83789 a 3.1454268,3.1454268 0 0 0 2.5957,-3.61133 3.1454268,3.1454268 0 0 0 -3.61133,-2.5957 l -41.5957,6.81836 -6.1289,-37.38868 a 3.1454268,3.1454268 0 0 0 -2.90821,-2.6289 z m -189.62695,1.27148 c -0.40045,0.005 -0.79422,0.0416 -1.17188,0.10352 l -10.92187,1.78906 c -1.48816,0.24393 -3.07081,0.94889 -4.09766,2.3418 -1.02688,1.39288 -1.24436,3.17788 -0.98828,4.74023 l 6.1543,37.55274 a 3.1454269,3.1454269 0 0 0 3.61133,2.5957 3.1454269,3.1454269 0 0 0 2.5957,-3.61328 l -6.13672,-37.42969 10.67969,-1.75195 10.3789,63.32422 -10.67773,1.75195 -2.20898,-13.47461 a 3.1454269,3.1454269 0 0 0 -3.61329,-2.60156 3.1454269,3.1454269 0 0 0 -2.59375,3.61914 l 2.22852,13.5957 c 0.25286,1.54265 1.03039,3.12265 2.41211,4.11524 1.38171,0.99254 3.12727,1.22356 4.66992,0.9707 l 10.92188,-1.78906 c 1.56235,-0.25609 3.18552,-1.02557 4.17773,-2.44336 0.99217,-1.41782 1.15409,-3.15048 0.91016,-4.63867 l -10.41992,-63.56836 c -0.24764,-1.51065 -0.94542,-3.13127 -2.375,-4.15821 -1.07224,-0.77019 -2.33382,-1.04566 -3.53516,-1.03125 z m -32.41406,5.3125 c -0.40045,0.005 -0.79423,0.0416 -1.17188,0.10352 l -11.12305,1.82226 c -1.48819,0.24394 -3.07077,0.95084 -4.09765,2.34375 -1.02685,1.39288 -1.24436,3.17597 -0.98828,4.73829 l 6.38086,38.9375 c 0.6158,3.75692 0.78488,6.56197 0.41015,7.79882 -0.18725,0.61841 -0.36317,0.87245 -0.8164,1.20899 -0.45321,0.33653 -1.31718,0.73703 -2.82618,0.98437 -1.50899,0.24734 -2.44942,0.14093 -2.98632,-0.0332 -0.53693,-0.17424 -0.78521,-0.35656 -1.16016,-0.88281 -0.74991,-1.05251 -1.48576,-3.76652 -2.10156,-7.52344 l -2.6875,-16.38867 a 3.1454269,3.1454269 0 0 0 -3.61914,-2.59375 3.1454269,3.1454269 0 0 0 -2.59375,3.61133 l 2.68554,16.39062 c 0.63783,3.89129 1.16325,7.30242 3.19532,10.1543 1.01598,1.42596 2.53373,2.63273 4.33984,3.21875 1.80611,0.58602 3.77719,0.60896 5.94336,0.2539 2.16613,-0.35505 4.03406,-1.00879 5.55859,-2.14062 1.52455,-1.13195 2.57835,-2.75985 3.08594,-4.43555 1.01525,-3.35136 0.41712,-6.74933 -0.2207,-10.64062 l -6.36328,-38.81446 10.8789,-1.7832 7.22657,44.08203 c 0.50129,3.05833 0.99683,8.551 -1.05079,13.38867 -2.04762,4.83768 -6.33441,9.42003 -17.33203,11.22266 -10.99762,1.80263 -16.52096,-1.17265 -20.00586,-5.10352 -3.48487,-3.93084 -4.76238,-9.29519 -5.26367,-12.35351 l -7.22461,-44.08203 10.8711,-1.78125 1.64062,10.01172 a 3.1454269,3.1454269 0 0 0 3.61328,2.59375 3.1454269,3.1454269 0 0 0 2.60156,-3.61328 l -1.6621,-10.13282 c -0.24763,-1.51061 -0.95132,-3.13126 -2.38086,-4.1582 -1.42959,-1.02694 -3.1906,-1.17729 -4.70118,-0.92969 l -11.1289,1.82422 c -1.48817,0.24393 -3.0708,0.95084 -4.09766,2.34375 -1.02687,1.39288 -1.24632,3.17593 -0.99023,4.73828 l 7.24609,44.20313 c 0.57324,3.49728 1.96835,10.08783 6.77344,15.50781 4.80509,5.42001 13.18347,9.19462 25.72656,7.13867 12.54309,-2.05594 19.28601,-8.31007 22.10938,-14.98047 2.82333,-6.67035 2.03613,-13.35818 1.46289,-16.85547 l -7.2461,-44.20312 c -0.2476,-1.51061 -0.94541,-3.13318 -2.375,-4.16016 -1.07219,-0.77023 -2.33381,-1.04566 -3.53515,-1.03125 z m -65.48828,10.73438 c -0.40047,0.005 -0.79423,0.0416 -1.17188,0.10351 l -11.12305,1.82227 c -1.48817,0.24393 -3.07079,0.95087 -4.09765,2.34375 -1.02687,1.39287 -1.24437,3.17593 -0.98828,4.73828 l 3.19336,19.48633 -12.24219,-19.96094 -0.0195,-0.0273 c -1.43054,-2.20809 -4.46126,-3.52973 -7.00196,-3.11328 l -14.59765,2.39453 c -1.4882,0.24393 -3.07862,0.95084 -4.10547,2.34375 -1.02686,1.39287 -1.23851,3.17593 -0.98242,4.73828 l 2.60546,15.89453 a 3.1454269,3.1454269 0 0 0 3.61329,2.5957 3.1454269,3.1454269 0 0 0 2.59375,-3.61328 l -2.58594,-15.77344 14.47656,-2.37304 c 0.83645,-0.1371 0.22015,-0.41436 0.70117,0.32812 l 18.91797,30.83203 0.0215,0.0391 c 0.37313,0.56871 0.88839,1.13864 1.69336,1.52734 0.80495,0.38867 1.99831,0.52076 3.02343,0.0781 2.05025,-0.88529 2.37722,-3.00384 2.16016,-4.32813 l -5.24024,-31.96289 10.87891,-1.7832 7.39258,45.09179 a 3.1454269,3.1454269 0 0 0 3.61133,2.59375 3.1454269,3.1454269 0 0 0 2.59375,-3.61132 l -7.41016,-45.21485 c -0.2476,-1.51061 -0.94541,-3.13127 -2.375,-4.1582 -1.07219,-0.7702 -2.33381,-1.04566 -3.53515,-1.03125 z m -120.19141,18.3164 c -2.22619,0.0131 -4.62589,0.22178 -7.20508,0.64454 -11.79059,1.9326 -18.5935,6.91579 -21.55469,13.3789 -2.96119,6.46311 -2.19714,13.62107 -1.14453,20.04297 l 0.31641,1.93555 a 3.1454269,3.1454269 0 0 0 3.61328,2.60156 3.1454269,3.1454269 0 0 0 2.60156,-3.62109 l -0.31836,-1.93555 c -0.99877,-6.09342 -1.36327,-12.00697 0.65235,-16.40625 2.01561,-4.39928 6.29337,-8.06042 16.85156,-9.79102 10.55818,-1.73059 15.7811,0.37281 19.0957,3.89844 3.3146,3.52564 4.86451,9.24641 5.86328,15.33985 l 5.95899,36.35546 a 3.1454269,3.1454269 0 0 0 3.61133,2.59571 3.1454269,3.1454269 0 0 0 2.5957,-3.61328 l -5.96094,-36.35547 c -1.05262,-6.4219 -2.61287,-13.44934 -7.48242,-18.62891 -3.80433,-4.04654 -9.54348,-6.48805 -17.49414,-6.44141 z m -73.09375,13.36524 c -0.39978,0.005 -0.79227,0.0416 -1.16992,0.10351 l -11.12305,1.82227 c -1.488176,0.24393 -3.070791,0.94888 -4.097656,2.3418 -1.026872,1.39287 -1.244367,3.17788 -0.988282,4.74023 l 10.417968,63.56836 c 0.25286,1.54265 1.03038,3.12266 2.41211,4.11523 1.38173,0.99257 3.12729,1.22356 4.66992,0.97071 l 39.23047,-6.42969 c 1.51059,-0.2476 3.13125,-0.94541 4.1582,-2.375 1.02695,-1.42959 1.1773,-3.19642 0.92969,-4.70703 l -1.82422,-11.12305 c -0.2476,-1.51061 -0.95126,-3.12931 -2.38086,-4.15625 -1.4296,-1.02693 -3.19058,-1.17729 -4.70117,-0.92969 L 125.83594,580 l -1.07032,-6.5293 a 3.1454269,3.1454269 0 0 0 -3.61328,-2.59375 3.1454269,3.1454269 0 0 0 -2.59375,3.61133 l 1.0918,6.6582 c 0.25286,1.54265 1.02843,3.1168 2.41016,4.10938 1.38172,0.99254 3.12729,1.22356 4.66992,0.9707 l 22.02344,-3.60937 1.7832,10.8789 -38.98633,6.38868 -10.38086,-63.32422 10.87891,-1.78321 4.47461,27.29883 a 3.1454269,3.1454269 0 0 0 3.61328,2.59375 3.1454269,3.1454269 0 0 0 2.59375,-3.61133 l -4.49414,-27.41992 c -0.24761,-1.51061 -0.95128,-3.12931 -2.38086,-4.15625 -1.07219,-0.7702 -2.33192,-1.04728 -3.53125,-1.0332 z m 72.19531,5.64844 c -1.02003,0.003 -2.1042,0.11166 -3.24609,0.29882 -3.65407,0.59894 -6.50277,1.76667 -7.99414,4.29883 -1.49137,2.53216 -1.09516,5.11955 -0.67969,7.6543 l 1.77344,10.82812 c 0.25285,1.54265 1.03038,3.12465 2.41211,4.11719 1.38172,0.99254 3.12728,1.22358 4.66992,0.9707 l 8.62109,-1.41406 0.0801,-0.0117 c 1.47097,-0.31721 3.0176,-1.05675 4.00977,-2.47461 0.99216,-1.41789 1.14994,-3.17102 0.90234,-4.68164 a 3.1454269,3.1454269 0 0 0 -3.61133,-2.5957 3.1454269,3.1454269 0 0 0 -2.57617,3.58789 3.1454269,3.1454269 0 0 0 -0.0176,0.0254 c -0.0534,0.0163 0.0642,-0.0366 -0.041,-0.0156 l -8.26172,1.35351 -1.75586,-10.70703 c -0.36601,-2.23299 -0.20602,-3.27189 -0.10157,-3.44922 0.10447,-0.17725 0.68632,-0.79588 3.5879,-1.27148 2.90157,-0.4756 3.653,-0.0761 3.80859,0.0586 0.15556,0.13464 0.6379,1.06975 1.00391,3.30274 a 3.1454269,3.1454269 0 0 0 3.61328,2.60156 3.1454269,3.1454269 0 0 0 2.59375,-3.61914 c -0.41548,-2.53475 -0.86812,-5.11357 -3.08985,-7.03711 -1.52742,-1.32244 -3.45709,-1.82773 -5.70117,-1.82031 z m 75.74609,1.3125 a 3.1454269,3.1454269 0 0 0 -0.70312,0.0351 v -0.002 a 3.1454269,3.1454269 0 0 0 -2.59375,3.61133 l 5.92383,36.14843 c 0.25285,1.54267 1.03038,3.12461 2.41211,4.11719 1.38172,0.99255 3.12729,1.22356 4.66992,0.97071 l 11.12305,-1.82227 c 1.56234,-0.25608 3.18361,-1.02558 4.17578,-2.44336 0.99216,-1.41782 1.15408,-3.15048 0.91015,-4.63867 l -3.19336,-19.48633 12.24219,19.96094 0.0215,0.0332 c 1.43054,2.20809 4.45934,3.52386 7,3.10742 l 14.59765,-2.39453 c 1.56235,-0.25608 3.18555,-1.02557 4.17774,-2.44336 0.99218,-1.41782 1.15408,-3.14852 0.91015,-4.63672 l -0.97461,-5.9414 a 3.1454269,3.1454269 0 0 0 -3.61132,-2.59571 3.1454269,3.1454269 0 0 0 -2.59571,3.61329 l 0.95508,5.81836 -14.47656,2.37304 c -0.8365,0.13711 -0.22015,0.42217 -0.70117,-0.32031 l -18.91797,-30.83789 -0.0215,-0.041 c -0.37316,-0.56867 -0.88648,-1.12892 -1.6914,-1.51758 -0.80492,-0.38863 -1.9983,-0.52267 -3.02344,-0.0801 -2.05027,0.88526 -2.37722,3.00387 -2.16016,4.32812 l 5.23828,31.95703 -10.8789,1.78321 -5.90625,-36.02735 a 3.1454269,3.1454269 0 0 0 -2.90821,-2.6289 z m -99.0996,24.44531 a 3.1454269,3.1454269 0 0 0 -0.70508,0.0371 3.1454269,3.1454269 0 0 0 -2.59375,3.61133 l 4.55078,27.76367 c 0.26389,1.60994 0.95324,3.21172 2.31836,4.3164 1.36512,1.10469 3.23103,1.4278 4.82812,1.16602 l 11.12891,-1.82422 c 1.51059,-0.2476 3.13126,-0.94541 4.1582,-2.375 1.02695,-1.42959 1.16948,-3.19642 0.92188,-4.70703 l -1.39649,-8.51367 8.29883,-1.35938 1.39649,8.51368 c 0.25608,1.56235 1.03335,3.18361 2.45117,4.17578 1.41782,0.99216 3.1427,1.15603 4.63086,0.91211 l 11.12304,-1.82422 a 3.1454269,3.1454269 0 0 0 2.59375,-3.61133 3.1454269,3.1454269 0 0 0 -3.61132,-2.59375 l -11.00196,1.80273 -1.39453,-8.51367 c -0.2476,-1.51061 -0.95127,-3.13123 -2.38086,-4.1582 -1.42958,-1.02694 -3.19056,-1.17729 -4.70117,-0.92969 l -8.54297,1.40039 c -1.48817,0.24393 -3.07076,0.94892 -4.09766,2.3418 -1.02687,1.39287 -1.24436,3.17788 -0.98828,4.74023 l 1.39454,8.51367 -10.87891,1.78321 c -0.0106,-0.0209 0.0207,0.0792 -0.0371,-0.27344 l -4.55078,-27.76367 a 3.1454269,3.1454269 0 0 0 -2.91406,-2.63086 z"
         transform="matrix(0.26540125,0.04350206,-0.04350206,0.26540125,33.81097,-41.184121)" />
    </g>
    <path
       style="color:#000000;fill:#ff2093;stroke-linecap:round;stroke-linejoin:round;-inkscape-stroke:none;paint-order:markers stroke fill"
       d="m 167.78906,85.296875 -43.68945,7.160156 a 1.28734,1.28734 0 0 0 -1.0625,1.478516 1.28734,1.28734 0 0 0 1.47852,1.0625 l 43.68945,-7.160156 c 1.86428,-0.305575 3.33992,0.934726 3.91601,2.935546 l 25.44141,88.359373 c 0.47387,1.6458 -0.9631,3.50902 -2.76953,3.72656 l -58.81445,7.08399 a 1.28734,1.28734 0 0 0 -1.12305,1.43164 1.28734,1.28734 0 0 0 1.43164,1.12305 l 58.81445,-7.08203 c 3.32851,-0.40086 5.89078,-3.67172 4.9336,-6.9961 L 174.5957,90.0625 c -0.85496,-2.969331 -3.56696,-5.296641 -6.80664,-4.765625 z M 59.451172,103.05469 13.640625,110.5625 c -1.621399,0.26577 -2.937389,1.19767 -3.7597656,2.41992 -0.8223765,1.22225 -1.1970827,2.71239 -1.171875,4.23438 l 1.4082036,84.99218 c 0.0289,1.74488 1.012216,3.19438 2.304687,4.0586 1.292471,0.86422 2.901042,1.23973 4.496094,1.04883 L 36.265625,205 a 1.28734,1.28734 0 0 0 1.126953,-1.42969 1.28734,1.28734 0 0 0 -1.431641,-1.125 l -19.347656,2.31446 c -0.972657,0.11641 -2.024116,-0.14092 -2.759765,-0.63282 -0.73565,-0.49189 -1.148184,-1.12012 -1.16211,-1.96093 l -1.408203,-84.99219 c -0.01762,-1.0637 0.258334,-2.0464 0.734375,-2.75391 0.476042,-0.70751 1.108482,-1.16387 2.039063,-1.3164 l 45.810546,-7.50977 a 1.28734,1.28734 0 0 0 1.0625,-1.47852 1.28734,1.28734 0 0 0 -1.478515,-1.06054 z m 68.908198,88.13672 -36.511714,4.32226 a 1.28734,1.28734 0 0 0 -1.128906,1.42969 1.28734,1.28734 0 0 0 1.429687,1.12695 l 36.513673,-4.32226 a 1.28734,1.28734 0 0 0 1.12695,-1.42969 1.28734,1.28734 0 0 0 -1.42969,-1.12695 z m -63.308589,7.61523 -19.367187,2.56445 a 1.28734,1.28734 0 0 0 -1.107422,1.44532 1.28734,1.28734 0 0 0 1.445312,1.10742 l 19.367188,-2.56446 a 1.28734,1.28734 0 0 0 1.105469,-1.44531 1.28734,1.28734 0 0 0 -1.44336,-1.10742 z"
       id="rect443903" />
    <g
       id="g395120"
       style="stroke:#ffeb2f;stroke-opacity:1"
       transform="matrix(0.96029349,-0.15740222,0.15740222,0.96029349,-24.830445,46.480902)">
      <path
         id="path21877"
         style="color:#000000;-inkscape-font-specification:'Cubano, Normal';fill:#ffff00;stroke:none;stroke-width:3.67789;stroke-linecap:round;-inkscape-stroke:none"
         d="m 638.13867,556.69141 c -1.80043,-0.0122 -3.72725,0.13535 -5.78515,0.47265 h -0.002 c -10.0211,1.6426 -16.0335,6.13796 -19.12695,11.29492 -3.09345,5.15697 -3.31649,10.64727 -3.02344,14.33399 v 0.043 l 0.006,0.0371 c 0.1438,1.33886 0.71824,2.75096 1.79883,3.73047 1.08056,0.97954 2.46937,1.39503 3.7793,1.46875 l 0.008,0.008 10.80859,0.57226 0.0293,0.002 c 1.45208,0.0508 3.15069,-0.37225 4.27344,-1.60352 1.12273,-1.23134 1.37567,-2.75874 1.35742,-4.10156 l -0.004,0.0586 c 0.01,-1.49989 0.33637,-2.44913 0.8086,-3.05859 0.47222,-0.6095 1.17567,-1.10959 2.79492,-1.375 1.14618,-0.18787 1.45842,0.0454 1.61914,0.1914 0.16074,0.14622 0.3666,0.47446 0.33984,1.23438 -0.008,0.15416 -0.34388,1.0836 -1.45312,2.37109 -1.11144,1.29002 -2.8204,2.87158 -4.78321,4.65625 -3.92557,3.56938 -8.87558,7.96659 -12.42773,13.66211 -3.18507,5.10691 -5.19254,11.40453 -4.00391,18.65625 l 0.34375,2.0918 a 2.8906179,2.8906179 0 0 0 3.31641,2.38281 2.8906179,2.8906179 0 0 0 2.39062,-3.31836 l -0.34374,-2.08984 c -0.94197,-5.74681 0.54037,-10.40366 3.20117,-14.66992 2.96742,-4.75802 7.46645,-8.84226 11.41406,-12.43164 1.97384,-1.79468 3.80577,-3.4622 5.27539,-5.16797 1.46961,-1.70581 2.75715,-3.51233 2.84766,-5.9336 v -0.006 c 0.0723,-2.06853 -0.60093,-4.22303 -2.23047,-5.70507 -1.62943,-1.48206 -4.02742,-2.02654 -6.44141,-1.63086 -2.67124,0.43784 -4.96569,1.65593 -6.42773,3.54297 -1.43677,1.85434 -1.953,4.14103 -1.98633,6.44726 l -10.39844,-0.55273 -0.008,0.002 c -0.0976,-0.007 -0.12389,-0.007 -0.13672,-0.004 -0.23227,-2.97417 0.0151,-7.19619 2.21484,-10.86328 2.20735,-3.67981 6.31944,-7.12855 15.10352,-8.56836 9.47281,-1.55269 14.12548,1.20883 16.99023,4.48047 2.86479,3.27164 3.74178,7.54546 3.86328,8.48047 l 0.01,0.0488 0.006,0.043 c 0.62902,3.83757 -0.11696,6.84734 -1.67969,9.69336 -1.5627,2.84597 -4.0302,5.47219 -6.77734,7.94726 -2.7471,2.47507 -5.74227,4.7846 -8.29883,7.22657 -2.55656,2.44197 -4.8441,5.07611 -5.44727,8.5664 a 2.8906179,2.8906179 0 0 0 0.0645,0.084 2.8906179,2.8906179 0 0 0 -0.0898,0.0723 c -0.0997,0.85812 0.0581,2.24014 1.13086,3.20703 1.07268,0.96694 2.35473,0.98153 3.19532,0.84375 l 17.24804,-2.82617 a 2.8906179,2.8906179 0 0 0 2.38282,-3.3164 2.8906179,2.8906179 0 0 0 -3.31836,-2.38282 l -12.66797,2.07617 c 0.58049,-0.75116 0.60245,-1.29651 1.49023,-2.14453 2.22288,-2.12322 5.22151,-4.44631 8.18164,-7.11328 2.96013,-2.667 5.91595,-5.69675 7.97852,-9.45312 2.05738,-3.74685 3.13212,-8.28614 2.30664,-13.37891 -0.24473,-1.85005 -1.2314,-6.91317 -5.23047,-11.48047 -3.27118,-3.73577 -8.68446,-6.80052 -16.48633,-6.85351 z m -57.73047,9.1582 c -1.80043,-0.0122 -3.72724,0.13534 -5.78515,0.47266 l -0.002,-0.002 c -10.0211,1.64257 -16.0335,6.13991 -19.12695,11.29688 -3.09346,5.15692 -3.31454,10.64527 -3.02148,14.33203 l -0.002,0.043 0.006,0.0371 c 0.1438,1.33886 0.71824,2.75096 1.79883,3.73047 1.08055,0.97951 2.46937,1.39698 3.7793,1.4707 l 0.008,0.006 10.80859,0.57226 0.0312,0.002 c 1.45205,0.0508 3.14874,-0.37225 4.27149,-1.60352 1.12273,-1.23134 1.37762,-2.75874 1.35937,-4.10156 l -0.006,0.0586 c 0.01,-1.49989 0.33637,-2.44909 0.8086,-3.05859 0.47223,-0.60947 1.17567,-1.10959 2.79492,-1.375 1.14618,-0.18787 1.46035,0.053 1.62109,0.19922 0.16075,0.14621 0.36465,0.46664 0.33789,1.22656 -0.008,0.15416 -0.34388,1.0836 -1.45312,2.37109 -1.11144,1.29002 -2.82043,2.87159 -4.7832,4.65625 -3.92562,3.56938 -8.87559,7.96659 -12.42774,13.66211 -3.18507,5.10691 -5.19254,11.40648 -4.0039,18.65821 l 0.34374,2.08984 a 2.8906179,2.8906179 0 0 0 3.31641,2.38281 2.8906179,2.8906179 0 0 0 2.39063,-3.3164 l -0.34375,-2.0918 c -0.94197,-5.74681 0.54232,-10.39585 3.20312,-14.66211 2.96743,-4.75802 7.46451,-8.85007 11.41211,-12.43945 1.97384,-1.79468 3.80578,-3.46021 5.27539,-5.16602 1.46962,-1.70577 2.75715,-3.51233 2.84766,-5.93359 v -0.008 c 0.0723,-2.06851 -0.59526,-4.225 -2.22461,-5.70704 -1.62943,-1.48206 -4.03328,-2.02458 -6.44727,-1.6289 -2.67124,0.43784 -4.96564,1.65596 -6.42773,3.54297 -1.43812,1.85613 -1.95397,4.14658 -1.98633,6.45507 l -10.39844,-0.55859 h -0.008 c -0.0979,-0.007 -0.1227,-0.006 -0.13672,-0.004 -0.23227,-2.97417 0.0151,-7.19615 2.21484,-10.86328 2.20739,-3.67978 6.31944,-7.12855 15.10352,-8.56836 9.47281,-1.55269 14.12545,1.20884 16.99024,4.48047 2.86475,3.27164 3.74373,7.54546 3.86523,8.48047 l 0.008,0.0488 0.008,0.0508 c 0.62902,3.83757 -0.1189,6.84152 -1.68164,9.6875 -1.56269,2.84601 -4.03024,5.47025 -6.77734,7.94531 -2.74714,2.47507 -5.74227,4.78655 -8.29883,7.22852 -2.55652,2.44196 -4.8441,5.07416 -5.44726,8.56445 a 2.8906179,2.8906179 0 0 0 0.0273,0.11914 2.8906179,2.8906179 0 0 0 -0.0508,0.0391 c -0.0164,0.12717 0.16569,0.32764 0.16406,0.4746 a 2.8906179,2.8906179 0 0 0 0.5957,1.67774 c 0.17762,0.37422 0.0171,0.73731 0.36914,1.05469 1.07268,0.96694 2.35474,0.98153 3.19532,0.84375 l 17.24804,-2.82618 a 2.8906179,2.8906179 0 0 0 2.38282,-3.3164 2.8906179,2.8906179 0 0 0 -3.31836,-2.38281 l -12.66797,2.07617 c 0.58049,-0.75117 0.60245,-1.29652 1.49023,-2.14453 2.22288,-2.12322 5.22151,-4.44628 8.18164,-7.11329 2.96014,-2.66696 5.91592,-5.69674 7.97852,-9.45312 2.0543,-3.74131 3.13696,-8.26799 2.31836,-13.35156 -0.24094,-1.836 -1.231,-6.92678 -5.24219,-11.50782 -3.27118,-3.73579 -8.68446,-6.80054 -16.48633,-6.85351 z m -60.5,10.17187 c -1.69009,-0.004 -3.47082,0.14223 -5.34375,0.44922 -12.00319,1.96745 -18.09265,9.43962 -20.12109,17.57227 -2.02847,8.13269 -0.69111,16.88332 0.32812,23.10156 1.09449,6.67733 2.97822,16.51311 8.69336,23.86328 a 2.8908018,2.8908018 0 0 0 4.0586,0.50781 2.8908018,2.8908018 0 0 0 0.50586,-4.05859 c -4.50726,-5.79686 -6.49289,-14.79393 -7.55078,-21.24805 -1.00076,-6.1055 -2.05428,-14.21155 -0.41993,-20.76367 1.63421,-6.55209 5.26177,-11.59902 15.44141,-13.26758 3.63022,-0.59503 6.59714,-0.44448 9.06445,0.18165 a 2.8908018,2.8908018 0 0 0 3.50782,-2.08985 2.8908018,2.8908018 0 0 0 -2.08985,-3.51562 c -1.8767,-0.47624 -3.90124,-0.72784 -6.07422,-0.73243 z m 12.50782,4.23633 a 2.8908018,2.8908018 0 0 0 -2.2754,1.04883 2.8908018,2.8908018 0 0 0 0.38282,4.06445 c 6.43899,5.32284 8.80631,16.50253 10.07812,24.26172 0.96342,5.87769 1.89072,14.00361 0.19336,20.64063 -1.6974,6.63698 -5.35019,11.76752 -15.2168,13.38476 -4.84369,0.79393 -8.48644,0.20816 -11.41406,-1.1582 a 2.8908018,2.8908018 0 0 0 -3.83984,1.40234 2.8908018,2.8908018 0 0 0 1.40039,3.83985 c 4.05446,1.89228 9.01173,2.57001 14.78906,1.62304 11.76844,-1.92897 17.79361,-9.49671 19.88086,-17.6582 2.08726,-8.16149 0.90298,-16.92688 -0.0937,-23.00781 -1.29049,-7.87313 -3.31467,-20.5244 -12.0957,-27.7832 a 2.8908018,2.8908018 0 0 0 -1.78906,-0.65821 z m -70.29102,5.28321 c -1.80043,-0.0122 -3.7292,0.1373 -5.78711,0.4746 -10.0211,1.64261 -16.0335,6.13796 -19.12695,11.29493 -3.09349,5.15697 -3.31649,10.64531 -3.02344,14.33203 v 0.0449 l 0.006,0.0352 c 0.1438,1.33886 0.71028,2.75294 1.79102,3.73242 1.08056,0.97955 2.47526,1.39502 3.78515,1.46875 l 0.008,0.006 10.81055,0.57226 0.0293,0.002 c 1.45208,0.0508 3.14874,-0.3703 4.27148,-1.60157 1.1227,-1.23133 1.36978,-2.75874 1.35156,-4.10156 l 0.002,0.0566 c 0.01,-1.49989 0.33835,-2.44913 0.81054,-3.05859 0.47223,-0.6095 1.17568,-1.10959 2.79493,-1.375 1.14621,-0.18788 1.45846,0.0473 1.61914,0.19336 0.16074,0.14621 0.3666,0.4725 0.33984,1.23242 -0.008,0.15416 -0.34388,1.0836 -1.45312,2.37109 -1.11141,1.29001 -2.8204,2.87158 -4.78321,4.65625 -3.92561,3.56938 -8.8834,7.96854 -12.43554,13.66407 -3.18507,5.1069 -5.18473,11.40452 -3.9961,18.65625 l 0.34375,2.09179 a 2.8906179,2.8906179 0 0 0 3.31641,2.38282 2.8906179,2.8906179 0 0 0 2.38281,-3.31836 l -0.34375,-2.08985 c -0.942,-5.7468 0.54037,-10.4017 3.20117,-14.66797 2.96747,-4.75802 7.47424,-8.84616 11.42188,-12.43554 1.9738,-1.79468 3.80381,-3.46025 5.27344,-5.16602 1.46961,-1.70581 2.7591,-3.51233 2.8496,-5.93359 l -0.002,-0.008 c 0.0723,-2.06853 -0.60089,-4.22304 -2.23047,-5.70507 -1.62943,-1.48206 -4.02546,-2.02654 -6.43945,-1.63086 -2.67124,0.43784 -4.9676,1.65592 -6.42969,3.54297 -1.43677,1.85434 -1.953,4.14103 -1.98633,6.44726 l -10.39648,-0.55078 h -0.008 c -0.0976,-0.007 -0.12389,-0.005 -0.13672,-0.002 -0.23253,-2.97428 0.0127,-7.19542 2.21289,-10.86328 2.20738,-3.67982 6.32139,-7.12856 15.10547,-8.56836 9.47284,-1.5527 14.11767,1.20882 16.98242,4.48046 2.86475,3.27165 3.74963,7.54351 3.87109,8.47852 l 0.002,0.0508 0.006,0.043 c 0.62901,3.83757 -0.10919,6.84735 -1.67188,9.69336 -1.5627,2.84598 -4.03024,5.47025 -6.77734,7.94531 -2.7471,2.47507 -5.74422,4.78655 -8.30078,7.22852 -2.55657,2.44197 -4.84219,5.07416 -5.44532,8.56445 a 2.8906179,2.8906179 0 0 0 0.0391,0.0527 2.8906179,2.8906179 0 0 0 -0.0645,0.10351 c -0.0997,0.85812 0.0581,2.24014 1.13086,3.20703 1.07268,0.96694 2.35473,0.98349 3.19531,0.84571 l 17.24024,-2.82618 a 2.8906179,2.8906179 0 0 0 2.38867,-3.31836 2.8906179,2.8906179 0 0 0 -3.32226,-2.38086 l -12.66797,2.07618 c 0.58081,-0.7519 0.60728,-1.29553 1.49609,-2.14453 2.22288,-2.12323 5.2215,-4.44632 8.18164,-7.11329 2.96013,-2.667 5.9081,-5.69674 7.9707,-9.45312 2.05735,-3.74684 3.13798,-8.28613 2.3125,-13.37891 -0.24473,-1.85005 -1.22945,-6.91512 -5.22851,-11.48242 -3.27115,-3.73577 -8.68445,-6.80053 -16.48633,-6.85351 z m 56.76953,6.5 c -0.57802,-0.008 -1.16606,0.0342 -1.75586,0.13086 -2.29919,0.37686 -4.32283,1.59172 -5.58398,3.28124 -1.26112,1.68953 -1.81611,3.67269 -2.06055,5.72461 -0.4888,4.10391 0.21517,8.73552 0.97852,13.39258 0.75717,4.61943 1.46231,9.22559 3.1914,12.98828 0.86455,1.88137 2.03173,3.61745 3.80469,4.82032 1.773,1.20285 4.11152,1.66989 6.4707,1.2832 3.72393,-0.61039 6.33308,-3.53573 7.20508,-6.71289 a 2.8908018,2.8908018 0 0 0 -2.02344,-3.55469 2.8908018,2.8908018 0 0 0 -3.55664,2.02344 c -0.48807,1.77838 -0.81387,2.25276 -2.56054,2.53906 -1.20103,0.19686 -1.72661,0.0189 -2.28711,-0.36133 -0.56048,-0.3803 -1.20619,-1.15963 -1.79883,-2.44922 -1.18522,-2.57919 -1.9842,-6.90917 -2.73828,-11.50976 -0.74791,-4.56292 -1.28507,-8.91802 -0.94531,-11.76953 0.16982,-1.42571 0.54445,-2.40889 0.95507,-2.95899 0.41063,-0.55009 0.80631,-0.85252 1.88477,-1.02929 1.20102,-0.19686 1.7266,-0.0208 2.28711,0.35937 0.56047,0.38027 1.20036,1.16939 1.79297,2.45899 1.18522,2.57919 1.99005,6.90917 2.74414,11.50976 0.35285,2.1527 0.66722,4.24726 0.85937,6.16992 a 2.8908018,2.8908018 0 0 0 3.16211,2.58985 2.8908018,2.8908018 0 0 0 2.58985,-3.16211 c -0.21218,-2.1335 -0.55003,-4.33608 -0.91016,-6.53321 -0.75717,-4.61939 -1.4643,-9.23144 -3.19336,-12.99414 -0.86454,-1.88132 -2.03169,-3.61745 -3.80469,-4.82031 -1.32972,-0.90215 -2.97298,-1.39106 -4.70703,-1.41601 z m 143.26563,14.30859 a 2.8906179,2.8906179 0 0 0 -0.64649,0.0312 2.8906179,2.8906179 0 0 0 -2.38867,3.31836 l 1.6582,10.11523 -38.76953,6.35547 a 2.8906179,2.8906179 0 0 0 -2.38867,3.31836 2.8906179,2.8906179 0 0 0 3.32422,2.38086 l 38.88086,-6.37305 c 1.3883,-0.22755 2.88434,-0.87176 3.82812,-2.18554 0.94378,-1.31382 1.07717,-2.93006 0.84961,-4.31836 l -1.67578,-10.22852 a 2.8906179,2.8906179 0 0 0 -2.67187,-2.41406 z m -222.22266,4.75781 0.008,0.0469 c 0,0 -0.002,0 -0.002,0 -0.003,-0.026 -0.002,-0.008 -0.006,-0.0469 z m 0.006,0.0488 c 6.5e-4,9.6e-4 0.002,0.001 0.004,0.002 v 0.006 c 3.1e-4,2.3e-4 -0.004,-1.1e-4 -0.004,0 -5.2e-4,-0.004 5.4e-4,-0.004 0,-0.008 z m 164.48633,4.34961 a 2.8906179,2.8906179 0 0 0 -0.64453,0.0332 2.8906179,2.8906179 0 0 0 -2.39063,3.31641 l 1.6582,10.11719 -38.76953,6.35351 a 2.8906179,2.8906179 0 0 0 -2.38867,3.31836 2.8906179,2.8906179 0 0 0 3.32422,2.38086 l 38.88867,-6.37305 c 1.3883,-0.22755 2.87654,-0.87172 3.82031,-2.18554 0.94379,-1.31379 1.07717,-2.92811 0.84961,-4.31641 l -1.67578,-10.22851 a 2.8906179,2.8906179 0 0 0 -2.67187,-2.41602 z m -118.28321,19.69336 a 2.8906179,2.8906179 0 0 0 -0.64648,0.0332 2.8906179,2.8906179 0 0 0 -2.38867,3.31836 l 1.65625,10.11524 -38.77539,6.35546 a 2.8906179,2.8906179 0 0 0 -2.38281,3.31641 2.8906179,2.8906179 0 0 0 3.31835,2.38281 l 38.88868,-6.375 c 1.3883,-0.22755 2.88239,-0.86981 3.82617,-2.18359 0.94374,-1.31381 1.07912,-2.93006 0.85156,-4.31836 l -1.67773,-10.22852 a 2.8906179,2.8906179 0 0 0 -2.66993,-2.41601 z"
         transform="matrix(0.26831469,0.0439796,-0.0439796,0.26831469,32.906777,-43.009041)" />
    </g>
    <g
       id="g38201">
      <g
         transform="matrix(0.06981657,-0.08025763,0.07989532,0.07043979,-122.91109,-249.19253)"
         id="g7124"
         style="fill:none;fill-opacity:0.514825;stroke:#4ae3ff;stroke-width:13.1614;stroke-linecap:round;stroke-linejoin:round;stroke-miterlimit:4;stroke-dasharray:none;stroke-opacity:1">
        <path
           id="path7122"
           style="color:#000000;fill:#11b4ff;fill-opacity:1;stroke:none;stroke-width:6.08694;-inkscape-stroke:none"
           d="m 311.1875,249.12695 c -1.94665,0.0263 -4.00322,0.22662 -6.14062,0.59571 a 2.6566903,2.6387588 80.691197 0 0 -0.002,0 h -0.002 c -0.18794,0.0309 -0.32233,0.059 -0.40039,0.0723 a 2.6566903,2.6387588 80.691197 0 0 -0.0293,0.004 c -2.28791,0.41968 -4.5966,1.02561 -6.86328,1.79883 -5.3663,1.83043 -10.06912,4.4274 -13.60742,7.41601 -3.46252,2.92465 -5.94014,6.24529 -6.33008,10.02735 -0.21398,0.97786 -0.20074,2.03196 0.13867,3.04492 l 3.17969,9.48828 c 0.98871,2.95021 4.24838,4.58242 7.17773,3.59375 l 6.68164,-2.25586 3.73047,11.13672 c -10.44432,5.05481 -19.73876,11.77438 -27.67773,19.6875 l -2.79297,-2.46289 2.27539,-2.61719 c 1.65589,-1.90359 1.45225,-4.89683 -0.44141,-6.56641 l -7.25976,-6.40039 c -1.18361,-1.04354 -2.79325,-1.38311 -4.22656,-1.0039 -0.86164,0.22808 -1.67555,0.71744 -2.29688,1.43164 l -16.79101,19.30469 c -1.65531,1.90288 -1.45507,4.89607 0.43945,6.5664 l 7.25976,6.40234 c 1.895,1.67068 4.86865,1.47265 6.52344,-0.42968 l 2.27539,-2.61524 3.09571,2.73047 c -13.37789,19.54747 -19.64131,43.64419 -15.59375,68.33789 8.62078,52.59441 60.36915,87.85025 115.29296,78.84766 37.36216,-6.12405 66.76366,-31.13351 79.05665,-63.10352 a 2.6566903,2.6387588 80.691197 0 0 -3.70313,-3.31054 c -49.09264,26.19493 -90.13019,10.26903 -112.62695,-18.89063 -22.416,-29.055 -25.93499,-71.09873 0.92578,-98.50195 a 2.6566903,2.6387588 80.691197 0 0 1.31836,-3.16016 l -0.0703,-0.21094 -0.0137,0.0645 a 2.6566903,2.6387588 80.691197 0 0 -0.0195,-0.1211 l 0.0156,0.01 -0.0273,-0.0859 a 2.6566903,2.6387588 80.691197 0 0 -0.125,-0.36914 l -4.30664,-12.85156 6.30078,-2.125 c 2.92926,-0.98871 4.54317,-4.2646 3.55469,-7.21485 l -3.0625,-9.13671 -0.0215,0.0332 a 2.6566903,2.6387588 80.691197 0 0 -0.0254,-0.16016 l 0.0215,0.0605 -0.0234,-0.0742 a 2.6566903,2.6387588 80.691197 0 0 -0.002,-0.006 c -9e-4,-0.005 -4.9e-4,-0.007 -0.006,-0.0117 l -0.0645,-0.1914 v -0.006 c -0.25026,-0.74542 -0.65683,-1.397 -1.14063,-1.94727 -1.83765,-2.41671 -4.74153,-3.74395 -8.09179,-4.38086 -1.69504,-0.32222 -3.53187,-0.46966 -5.47852,-0.44336 z m 0.0762,5.32032 c 1.64694,-0.0223 3.1439,0.0982 4.43555,0.34375 2.5833,0.4911 4.22825,1.48702 4.91406,2.41601 a 2.6566903,2.6387588 80.691197 0 0 0.19922,0.24024 c 0.0441,0.0467 0.0683,0.0862 0.0879,0.14453 l 0.0957,0.28711 a 2.6566903,2.6387588 80.691197 0 0 0.0234,0.0566 2.6566903,2.6387588 80.691197 0 0 0,0.006 l 3.0625,9.13476 c 0.0825,0.2469 0.003,0.40945 -0.24219,0.49219 l -8.79882,2.96875 a 2.6566903,2.6387588 80.691197 0 0 -1.65625,3.36133 l 4.8164,14.375 -0.27148,-0.81446 2.08398,-0.70507 a 2.6566903,2.6387588 80.691197 0 0 -0.54101,0.33789 l -0.0625,-0.12696 c -0.0685,0.0677 -0.0964,0.0985 -0.0859,0.0879 a 2.6566903,2.6387588 80.691197 0 0 -0.0371,0.1543 2.6566903,2.6387588 80.691197 0 0 -0.29883,0.1875 c -0.28143,0.2837 -0.5118,0.59231 -0.78711,0.87891 -28.33365,29.49783 -24.47022,74.30394 -0.83789,104.93554 22.83772,29.60157 64.54235,45.96815 112.76172,23.48829 -12.90981,27.06816 -39.21963,47.91748 -72.18164,53.32031 -52.25534,8.5652 -101.09483,-24.86016 -109.22461,-74.45899 -3.94768,-24.08431 2.41222,-47.56662 15.98828,-66.39257 a 2.6566903,2.6387588 80.691197 0 0 -0.40234,-3.5586 l -6.81055,-6.00586 a 2.6566903,2.6387588 80.691197 0 0 -3.72461,0.24414 l -3.58008,4.11719 -6.27539,-5.5332 15.93164,-18.31446 6.27539,5.53125 -3.58007,4.11719 a 2.6566903,2.6387588 80.691197 0 0 0.25,3.74805 l 6.58789,5.80859 a 2.6566903,2.6387588 80.691197 0 0 3.64257,-0.15429 c 0.009,-0.009 0.0186,-0.016 0.0274,-0.0254 -0.69291,2.15477 -0.9044,4.5849 -0.56055,7.11329 0.44337,3.26005 1.71237,6.14138 3.60352,8.26953 1.8911,2.1282 4.60556,3.57068 7.52734,3.17383 2.92133,-0.39617 5.15047,-2.50802 6.4043,-5.0625 1.25383,-2.55449 1.70691,-5.67014 1.26367,-8.92969 -0.4434,-3.25962 -1.71295,-6.13729 -3.60547,-8.25586 -1.85223,-2.0734 -4.49328,-3.45502 -7.33398,-3.14453 6.76053,-5.74498 14.36817,-10.65747 22.71289,-14.46094 a 2.6566903,2.6387588 80.691197 0 0 1.4082,-3.26367 l -5.32031,-15.875 a 2.6566903,2.6387588 80.691197 0 0 -3.34375,-1.67383 l -9.1836,3.09961 c -0.24502,0.083 -0.40554,8.1e-4 -0.48828,-0.24609 l -3.17969,-9.48633 c -0.0286,-0.0863 -0.0279,-0.14878 -0.008,-0.22266 a 2.6566903,2.6387588 80.691197 0 0 0.0781,-0.4668 c 0.12478,-1.59902 1.60079,-4.15943 4.51758,-6.62304 2.91673,-2.46365 7.10586,-4.81698 11.91406,-6.45703 2.0282,-0.6919 4.09541,-1.23286 6.11719,-1.60352 0.15414,-0.0253 0.27403,-0.0488 0.33398,-0.0586 l -0.0215,-0.01 a 2.6566903,2.6387588 80.691197 0 0 0.043,0.006 c 1.89188,-0.32797 3.68901,-0.49333 5.33594,-0.51562 z m 74.96289,28.37304 c -0.14533,0.005 -0.29026,0.023 -0.43164,0.0527 -0.72737,0.15167 -1.38143,0.62113 -1.7539,1.33789 l -8.86133,17.05859 c -0.66213,1.27458 -0.17412,2.83864 1.09375,3.50781 l 2.75,1.45313 c 1.26788,0.66913 2.82227,0.18082 3.48437,-1.09375 l 8.86133,-17.05664 c 0.66214,-1.27458 0.17424,-2.84064 -1.09375,-3.50977 l -2.75,-1.45117 c -0.41601,-0.21957 -0.86283,-0.31513 -1.29883,-0.29883 z m -36.77734,0.18946 a 3.6754638,3.6506562 80.691393 0 0 -0.95117,0.0293 3.6754638,3.6506562 80.691393 0 0 -3.00977,4.2168 3.6754638,3.6506562 80.691393 0 0 4.19727,3.03711 3.6754638,3.6506562 80.691393 0 0 3.00781,-4.21875 3.6754638,3.6506562 80.691393 0 0 -3.24414,-3.06445 z m -18.17383,0.74609 a 3.6754638,3.6506562 80.691393 0 0 -0.95312,0.0293 3.6754638,3.6506562 80.691393 0 0 -3.00782,4.21875 3.6754638,3.6506562 80.691393 0 0 4.19532,3.03515 3.6754638,3.6506562 80.691393 0 0 3.00976,-4.21679 3.6754638,3.6506562 80.691393 0 0 -3.24414,-3.06641 z m 36.09766,0.83594 a 3.6754638,3.6506562 80.691393 0 0 -0.95313,0.0293 3.6754638,3.6506562 80.691393 0 0 -3.00781,4.2168 3.6754638,3.6506562 80.691393 0 0 4.19727,3.03516 3.6754638,3.6506562 80.691393 0 0 3.00781,-4.2168 3.6754638,3.6506562 80.691393 0 0 -3.24414,-3.06445 z m -48.68555,5.13476 a 2.6566903,2.6387588 80.691197 0 0 0.0156,0.0195 2.6566903,2.6387588 80.691197 0 0 -0.004,0.0176 z m 2.98633,1.72266 a 2.6566903,2.6387588 80.691197 0 0 0.12305,0.0176 c 0.20696,-0.049 0.17313,-0.028 -0.10547,0.0176 z m 77.62695,8.12305 c -0.24242,-0.01 -0.48959,0.004 -0.73828,0.0449 -1.98947,0.32621 -3.33599,2.21375 -3.00781,4.21679 0.32844,2.00296 2.20776,3.36309 4.19726,3.03711 1.98951,-0.32617 3.33599,-2.21375 3.00782,-4.21679 -0.28739,-1.75266 -1.76205,-3.01286 -3.45899,-3.08203 z m -66.42969,8.16992 -0.32421,0.45508 -1.84961,2.59375 0.97656,5.95703 1.83398,1.32812 0.85938,-1.20508 z m 80.5918,2.70117 a 3.6754638,3.6506562 80.691393 0 0 -0.95117,0.0293 3.6754638,3.6506562 80.691393 0 0 -3.00977,4.21679 3.6754638,3.6506562 80.691393 0 0 4.19727,3.03711 3.6754638,3.6506562 80.691393 0 0 3.00976,-4.21875 3.6754638,3.6506562 80.691393 0 0 -3.24609,-3.06445 z m -132.58398,7.125 c 0.84087,-0.11338 1.82378,0.24851 2.8789,1.42969 1.05551,1.18153 1.98664,3.12014 2.29883,5.41601 0.31227,2.29577 -0.0644,4.42873 -0.76758,5.86133 -0.70315,1.4326 -1.55775,2.04561 -2.38867,2.1582 -0.83067,0.11265 -1.81836,-0.25181 -2.87891,-1.44531 -1.06055,-1.1935 -1.99249,-3.14582 -2.30468,-5.4414 -0.31228,-2.29558 0.0656,-4.41409 0.76758,-5.83399 0.70171,-1.41943 1.55375,-2.03 2.39453,-2.14453 z m 52.65625,0.66406 -0.13672,0.19141 -1.17969,1.65234 0.97656,5.95899 3.03321,2.19336 -1.49024,-9.09375 z m 36.82031,6.58789 -12.08985,1.98047 0.44727,0.32813 2.50781,1.83984 7.02735,-1.15234 z m 0.0898,0.0547 -0.32617,0.46094 -1.78711,2.54492 0.95899,5.85352 1.81054,1.30664 0.81446,-1.1875 z m 55.1543,0.89258 a 3.6754638,3.6506562 80.691393 0 0 -0.95313,0.0273 3.6754638,3.6506562 80.691393 0 0 -3.00781,4.21875 3.6754638,3.6506562 80.691393 0 0 4.19727,3.03516 3.6754638,3.6506562 80.691393 0 0 3.00781,-4.2168 3.6754638,3.6506562 80.691393 0 0 -3.24414,-3.06445 z m -67.40039,1.11719 0.0918,0.55468 1.38086,8.42188 1.18164,0.85547 1.29492,-1.8125 -0.95899,-5.85547 z m 12.92578,8.29296 -0.13867,0.19532 -1.16016,1.62695 0.95899,5.85547 2.96289,2.17187 -1.4668,-8.94922 z m -10.25,1.6836 -0.13281,0.19336 -0.70703,1.02734 1.46679,8.94727 2.14258,-3.00391 -0.96094,-5.85547 z m 81.66211,2.2207 c -0.14706,-0.004 -0.29662,0.005 -0.44531,0.0274 v -0.002 c -0.17008,0.0238 -0.3397,0.0693 -0.50782,0.13086 l -17.98242,6.5625 c -1.34373,0.49037 -2.03114,1.97465 -1.54101,3.32813 l 1.06445,2.93554 c 0.49017,1.35347 1.96681,2.04893 3.31055,1.5586 l 17.98242,-6.5625 c 1.34377,-0.49038 2.03118,-1.97469 1.54101,-3.32813 l -1.06445,-2.9375 c -0.37525,-1.03622 -1.32802,-1.68517 -2.35742,-1.71289 z m -165.76758,3.26953 c -3.26477,0.44292 -5.78741,2.79352 -7.23047,5.71289 -1.44295,2.91917 -1.97883,6.52126 -1.46484,10.30078 0.51401,3.77966 1.99205,7.10759 4.16211,9.53711 2.17002,2.42958 5.2292,4.02503 8.49414,3.58204 3.26467,-0.44295 5.7883,-2.79372 7.23242,-5.7129 1.44412,-2.91922 1.98088,-6.52042 1.4668,-10.30078 -0.51413,-3.78006 -1.99313,-7.10959 -4.16407,-9.53906 -2.17093,-2.42947 -5.23082,-4.02307 -8.49609,-3.58008 z m 93.95703,0.58985 -7.02734,1.15039 -0.0547,0.0801 -2.05273,2.91796 12.08984,-1.98242 z m -93.24023,4.67382 c 1.18794,-0.16132 2.52223,0.36913 3.85742,1.86329 1.33515,1.49416 2.47293,3.8886 2.85547,6.70117 0.38246,2.81239 -0.0749,5.42171 -0.96289,7.21679 -0.88806,1.79514 -2.03423,2.66105 -3.22266,2.82227 -1.1878,0.16131 -2.52115,-0.3674 -3.85547,-1.86133 -1.33436,-1.49392 -2.4729,-3.88818 -2.85547,-6.70117 -0.3826,-2.81265 0.0755,-5.42164 0.96289,-7.2168 0.88736,-1.79516 2.0327,-2.66106 3.22071,-2.82226 z m 124.80664,5.46094 -0.32422,0.45313 -2.51953,3.53515 1.33008,8.11719 2.41992,1.75 1.11133,-1.55664 z m 36.80078,6.91797 a 3.6754638,3.6506562 80.691393 0 0 -0.95313,0.0293 3.6754638,3.6506562 80.691393 0 0 -3.00781,4.21875 3.6754638,3.6506562 80.691393 0 0 4.19727,3.03515 3.6754638,3.6506562 80.691393 0 0 3.00781,-4.21679 3.6754638,3.6506562 80.691393 0 0 -3.24414,-3.06641 z m -35.81641,7.39844 -0.13672,0.1914 -1.5996,2.24219 1.33007,8.11719 3.96875,2.87109 -2.00976,-12.25781 z m -149.20507,2.94726 a 2.6566903,2.6387588 80.691197 0 0 -2.33789,0.21289 h -0.004 a 2.6566903,2.6387588 80.691197 0 0 -1.24024,2.00196 c -0.20272,2.11853 -0.33315,4.24324 -0.38476,6.375 a 2.6566903,2.6387588 80.691197 0 0 0.002,0.006 c -0.54868,23.3605 8.45729,46.70324 24.47852,63.64453 16.02148,16.94115 38.7446,27.1484 61.95703,27.75195 a 2.6566903,2.6387588 80.691197 0 0 0.002,0 2.6566903,2.6387588 80.691197 0 0 0.002,0 2.6566903,2.6387588 80.691197 0 0 0.002,-0.002 2.6566903,2.6387588 80.691197 0 0 0.002,0 c 26.29675,0.6179 52.4638,-11.20257 69.45899,-31.36914 a 2.6566903,2.6387588 80.691197 0 0 -3.26758,-4.06055 c -10.18584,5.50625 -21.32892,9.13918 -32.75977,10.94336 0.0615,-4.03458 -2.82811,-7.26985 -6.58984,-9.40039 -3.7831,-2.1426 -8.73972,-3.42798 -14.21485,-3.57031 -5.4753,-0.1423 -10.48518,0.883 -14.36523,2.82617 -3.44599,1.72578 -6.23297,4.37247 -6.88281,7.79101 -3.93554,-1.07649 -7.83246,-2.3142 -11.60547,-3.85156 a 2.6566903,2.6387588 80.691197 0 0 -2.60352,0.35938 c -0.28994,0.22603 -0.65809,0.47299 -1.07422,0.74218 -3.27907,2.12437 -7.62958,3.32366 -12.43554,3.19922 -4.80612,-0.12539 -9.0951,-1.54805 -12.26953,-3.83984 -3.13165,-2.26128 -5.15669,-5.44351 -5.07422,-8.9668 0.0602,-2.54628 1.18994,-4.84005 3.05859,-6.74414 a 2.6566903,2.6387588 80.691197 0 0 -0.11719,-3.84375 c -14.2631,-12.90132 -24.8551,-29.91985 -30.15234,-48.45898 a 2.6566903,2.6387588 80.691197 0 0 -1.58398,-1.7461 z m 115.63867,2.32813 -18.67383,3.06055 0.44531,0.32812 3.96485,2.9082 11.11914,-1.82422 z m 0.36523,0.25391 -0.32422,0.45898 -2.82812,4.01953 1.51562,9.24609 2.73243,1.97657 1.1914,-1.73828 z m -19.30273,3.16796 0.0918,0.55274 2.19727,13.4082 1.73242,1.25391 1.95508,-2.74024 -1.51562,-9.24804 z m 89.80664,1.70899 a 3.6754638,3.6506562 80.691393 0 0 -0.95313,0.0293 3.6754638,3.6506562 80.691393 0 0 -3.00781,4.2168 3.6754638,3.6506562 80.691393 0 0 4.19727,3.03711 3.6754638,3.6506562 80.691393 0 0 3.00781,-4.21875 3.6754638,3.6506562 80.691393 0 0 -3.24414,-3.06445 z m -184.95117,9.67773 0.004,0.002 c 5.8392,13.24618 14.32804,25.28085 24.8125,35.23242 -1.68456,2.35789 -2.78425,5.1773 -2.85742,8.28515 -0.13243,5.63348 3.08192,10.38527 7.2793,13.41602 4.15495,2.9999 9.46025,4.68801 15.21289,4.83789 5.75261,0.14914 11.13182,-1.26217 15.42187,-4.04102 0.0663,-0.0428 0.15014,-0.10566 0.21875,-0.15039 4.74157,1.8559 9.60574,3.41586 14.55078,4.58203 a 2.6566903,2.6387588 80.691197 0 0 3.04102,-3.58203 c -0.21128,-0.52359 -0.27018,-0.83133 -0.26367,-1.10937 0.032,-1.34112 1.22771,-3.04512 4.11719,-4.49219 2.88982,-1.44727 7.16457,-2.39588 11.88086,-2.27344 4.71635,0.12257 8.94235,1.29106 11.75976,2.88672 2.81742,1.59571 3.93002,3.36133 3.89844,4.70313 -0.0131,0.55764 -0.20698,1.13558 -0.70508,1.82422 a 2.6566903,2.6387588 80.691197 0 0 2.44336,4.20507 c 8.57909,-0.99323 17.02616,-3.03266 25.12109,-6.03711 -15.29687,12.59014 -35.13217,19.71654 -54.90039,19.25391 -21.75971,-0.56577 -43.23764,-10.21102 -58.26367,-26.09961 -13.10143,-13.85381 -21.24045,-32.40339 -22.77148,-51.44336 z m 115.64648,1.75782 -0.14062,0.19531 -1.82032,2.55273 1.51563,9.2461 4.41601,3.24023 -2.28125,-13.91602 z m -16.38086,2.68945 -0.13281,0.19531 -1.09766,1.5957 2.2793,13.91407 3.19726,-4.48047 -1.51562,-9.24805 z m 82.88086,4.4375 a 3.6754638,3.6506562 80.691393 0 0 -0.95312,0.0293 3.6754638,3.6506562 80.691393 0 0 -3.00782,4.2168 3.6754638,3.6506562 80.691393 0 0 4.19727,3.03711 3.6754638,3.6506562 80.691393 0 0 3.00781,-4.2168 3.6754638,3.6506562 80.691393 0 0 -3.24414,-3.0664 z m -67.20117,5.23047 -11.1211,1.82226 -0.0547,0.0801 -3.08985,4.39453 18.67383,-3.06055 z m -66.86524,15.9414 c -1.61988,-0.0421 -3.19158,0.0862 -4.68554,0.36328 v -0.002 c -3.23778,0.60016 -6.12141,1.88773 -8.32227,3.79883 -2.20085,1.9111 -3.73633,4.56282 -3.80664,7.55273 -0.0866,3.68018 2.03772,6.90068 5.01953,9.04883 2.98185,2.1481 6.9064,3.41704 11.22461,3.5293 4.31822,0.11226 8.30027,-0.95258 11.37891,-2.94336 3.07868,-1.99079 5.34899,-5.09359 5.43554,-8.77344 0.0864,-3.68006 -2.03578,-6.89942 -5.01757,-9.04687 -2.98178,-2.14741 -6.90873,-3.41512 -11.22657,-3.52735 z m -0.12304,5.31055 c 3.3516,0.0871 6.31944,1.11952 8.28515,2.53516 1.96567,1.41564 2.84348,3.02136 2.80664,4.58984 -0.0372,1.56859 -0.99041,3.12929 -3.01953,4.44141 -2.0295,1.31232 -5.0413,2.19063 -8.39258,2.10351 -3.35136,-0.0871 -6.31929,-1.12084 -8.28515,-2.53711 -1.9659,-1.41622 -2.84354,-3.0234 -2.80664,-4.59179 0.0299,-1.27453 0.64008,-2.50216 1.98047,-3.66602 1.34037,-1.16391 3.39338,-2.1465 5.83789,-2.59961 1.12872,-0.20946 2.33749,-0.30803 3.59375,-0.27539 z"
           transform="matrix(1.6449315,1.8742007,-1.8657399,1.6303778,-993.06377,2406.191)" />
      </g>
    </g>
    <path
       style="color:#000000;fill:#b921f8;stroke-linecap:round;stroke-linejoin:round;-inkscape-stroke:none"
       d="m 80.199219,165.42773 c -0.293595,0.0127 -0.468459,0.14775 -0.585938,0.25196 -0.117479,0.1042 -0.19667,0.20556 -0.271484,0.31445 -0.149627,0.21777 -0.278012,0.46782 -0.41211,0.75586 -0.268194,0.57608 -0.546488,1.3022 -0.820312,2.03711 -0.273824,0.73491 -0.540568,1.47526 -0.765625,2.04297 -0.112528,0.28385 -0.215296,0.52651 -0.294922,0.68945 -0.07963,0.16294 -0.218919,0.27032 -0.04102,0.12891 0.177904,-0.14141 0.04194,-0.031 -0.134765,0.01 -0.176707,0.0408 -0.434404,0.0872 -0.736328,0.13282 -0.603849,0.0912 -1.386323,0.1842 -2.164063,0.28515 -0.77774,0.10095 -1.548185,0.20854 -2.169922,0.33985 -0.310868,0.0657 -0.582207,0.13383 -0.828125,0.23046 -0.122959,0.0483 -0.241116,0.10047 -0.36914,0.19141 -0.128025,0.0909 -0.298322,0.23247 -0.376953,0.51563 -0.07863,0.28315 -0.0042,0.49083 0.05859,0.63476 0.0628,0.14393 0.136358,0.25067 0.216797,0.35547 0.160878,0.2096 0.35734,0.4065 0.589844,0.62305 0.465008,0.43308 1.071223,0.92458 1.685547,1.41211 0.614323,0.48752 1.234701,0.9699 1.705078,1.35937 0.235189,0.19474 0.434091,0.36611 0.564453,0.49219 0.130362,0.12608 0.188889,0.29297 0.109375,0.0801 -0.07951,-0.2129 -0.01546,-0.0518 -0.03125,0.1289 -0.01579,0.18067 -0.05357,0.44096 -0.103516,0.74219 -0.0999,0.60247 -0.252158,1.37562 -0.396484,2.14648 -0.144326,0.77087 -0.280404,1.53805 -0.347656,2.16993 -0.03363,0.31594 -0.05302,0.59368 -0.03711,0.85742 0.008,0.13187 0.02339,0.26029 0.07031,0.41015 0.04693,0.14987 0.128049,0.3553 0.373047,0.51758 0.244998,0.16229 0.464801,0.15783 0.621094,0.14258 0.156293,-0.0153 0.279769,-0.0535 0.404296,-0.0977 0.249056,-0.0882 0.499552,-0.21297 0.777344,-0.36718 0.555585,-0.30842 1.207832,-0.73241 1.861328,-1.16602 0.653497,-0.4336 1.304547,-0.87612 1.820313,-1.20312 0.257883,-0.1635 0.484338,-0.29975 0.644531,-0.38477 0.160194,-0.085 0.334467,-0.0899 0.107422,-0.0801 -0.227045,0.01 -0.05171,-5.4e-4 0.115234,0.0703 0.166946,0.0709 0.402774,0.18753 0.673828,0.32812 0.542109,0.28118 1.229428,0.66359 1.917969,1.03906 0.688542,0.37548 1.376859,0.74273 1.957031,1.00196 0.290087,0.12961 0.548936,0.23441 0.804688,0.30078 0.127876,0.0332 0.25313,0.0589 0.410156,0.0605 0.157027,0.002 0.377374,-0.0125 0.607422,-0.19531 0.230048,-0.18286 0.294333,-0.39352 0.328125,-0.54687 0.03379,-0.15336 0.03668,-0.28395 0.0332,-0.41602 -0.007,-0.26413 -0.05051,-0.53971 -0.111328,-0.85156 -0.121637,-0.6237 -0.322763,-1.37536 -0.533203,-2.13086 -0.21044,-0.7555 -0.430415,-1.51194 -0.582031,-2.10352 -0.07581,-0.29578 -0.134659,-0.55184 -0.166016,-0.73047 -0.03136,-0.17862 0.01784,-0.34592 -0.04297,-0.12695 -0.06081,0.21897 -0.01546,0.049 0.103516,-0.0879 0.118972,-0.13688 0.300109,-0.32667 0.517578,-0.54101 0.434939,-0.42869 1.014116,-0.96314 1.583984,-1.50196 0.569869,-0.53881 1.130823,-1.07911 1.556641,-1.55078 0.212909,-0.23583 0.391052,-0.4511 0.533203,-0.67383 0.07108,-0.11136 0.135425,-0.22227 0.185547,-0.37109 0.05012,-0.14882 0.104774,-0.36338 0.002,-0.63867 -0.10282,-0.2753 -0.284513,-0.40094 -0.419922,-0.48047 -0.135408,-0.0795 -0.258089,-0.1207 -0.384765,-0.1582 -0.253353,-0.075 -0.52837,-0.12164 -0.84375,-0.16016 -0.630761,-0.0771 -1.407851,-0.11707 -2.191407,-0.15039 -0.783555,-0.0333 -1.570217,-0.0571 -2.179687,-0.0957 -0.304735,-0.0193 -0.56652,-0.043 -0.746094,-0.0684 -0.179573,-0.0254 -0.32423,-0.1255 -0.134765,0 0.189464,0.12549 0.04068,0.0324 -0.05273,-0.12305 -0.09342,-0.15545 -0.216864,-0.3871 -0.353515,-0.66016 -0.273302,-0.54612 -0.60311,-1.26222 -0.939454,-1.9707 -0.336343,-0.70848 -0.677138,-1.40825 -0.99414,-1.95898 -0.158501,-0.27537 -0.306712,-0.51278 -0.47461,-0.7168 -0.08395,-0.10201 -0.170825,-0.19736 -0.296875,-0.29102 -0.126049,-0.0936 -0.311874,-0.21193 -0.605468,-0.19922 z m 0.08203,1.87891 c 0.01413,0.0239 0.02073,0.0296 0.03516,0.0547 0.274254,0.47646 0.607612,1.15842 0.939453,1.85742 0.331842,0.699 0.662725,1.4158 0.953125,1.99609 0.145201,0.29015 0.279904,0.54432 0.408203,0.75782 0.1283,0.21349 0.165773,0.37038 0.494141,0.58789 0.328368,0.2175 0.487747,0.19171 0.734375,0.22656 0.246628,0.0348 0.533621,0.0596 0.857422,0.0801 0.647601,0.041 1.43787,0.0667 2.210937,0.0996 0.773068,0.0329 1.532424,0.074 2.078125,0.14062 0.02896,0.004 0.0367,0.008 0.06445,0.0117 -0.01847,0.0209 -0.02152,0.0292 -0.04102,0.0508 -0.368396,0.40807 -0.914323,0.93715 -1.476563,1.46875 -0.562239,0.5316 -1.143317,1.06793 -1.605468,1.52344 -0.231076,0.22775 -0.432306,0.4331 -0.595703,0.62109 -0.163398,0.188 -0.298909,0.27284 -0.404297,0.65235 -0.105389,0.37951 -0.0333,0.5242 0.0098,0.76953 0.04307,0.24533 0.108902,0.52555 0.189453,0.83984 0.161103,0.62858 0.382221,1.38742 0.589844,2.13281 0.207624,0.74539 0.402578,1.47994 0.507813,2.01954 0.0056,0.0285 0.0048,0.037 0.0098,0.0644 -0.02613,-0.0113 -0.0354,-0.0113 -0.0625,-0.0234 -0.501934,-0.22426 -1.172237,-0.58072 -1.851562,-0.95117 -0.679325,-0.37045 -1.369287,-0.75592 -1.945313,-1.05469 -0.288013,-0.14938 -0.546106,-0.27574 -0.77539,-0.37305 -0.229285,-0.0973 -0.352593,-0.20259 -0.746094,-0.18554 -0.393501,0.017 -0.50655,0.13128 -0.726563,0.24804 -0.220012,0.11677 -0.46817,0.26573 -0.742187,0.43946 -0.548034,0.34746 -1.200954,0.7929 -1.845703,1.2207 -0.644749,0.4278 -1.283009,0.83864 -1.763672,1.10547 -0.02519,0.014 -0.03424,0.0142 -0.05859,0.0273 0.0025,-0.0267 9.49e-4,-0.0347 0.0039,-0.0625 0.05818,-0.54667 0.187685,-1.29609 0.330079,-2.05664 0.142394,-0.76055 0.298149,-1.53562 0.404296,-2.17578 0.05307,-0.32008 0.09354,-0.60538 0.115235,-0.85351 0.02169,-0.24814 0.08312,-0.39665 -0.05469,-0.76563 -0.137808,-0.36897 -0.281896,-0.44207 -0.460937,-0.61523 -0.179041,-0.17316 -0.398534,-0.36144 -0.648438,-0.56836 -0.499806,-0.41384 -1.122415,-0.89791 -1.728515,-1.37891 -0.6061,-0.48099 -1.195356,-0.96125 -1.597657,-1.33594 -0.02115,-0.0197 -0.02483,-0.0277 -0.04492,-0.0469 0.02691,-0.006 0.03442,-0.01 0.0625,-0.0156 0.537894,-0.11359 1.289311,-0.22071 2.05664,-0.32031 0.767329,-0.0996 1.551731,-0.19415 2.19336,-0.29101 0.320814,-0.0484 0.604965,-0.0963 0.847656,-0.15235 0.242691,-0.056 0.40456,-0.044 0.71289,-0.28906 0.308331,-0.24508 0.332048,-0.40512 0.441407,-0.62891 0.109358,-0.22378 0.222228,-0.4894 0.341797,-0.79101 0.239137,-0.60323 0.505232,-1.3472 0.77539,-2.07227 0.270159,-0.72507 0.545316,-1.43324 0.777344,-1.93164 0.01215,-0.0261 0.01929,-0.0317 0.03125,-0.0566 z"
       id="path453370"
       transform="matrix(0.96029349,-0.15740222,0.15740222,0.96029349,-26.404007,39.484262)" />
    <path
       style="color:#000000;fill:#b921f8;stroke-linecap:round;stroke-linejoin:round;-inkscape-stroke:none"
       d="m 62.621094,185.00195 c -0.312188,0.0135 -0.507429,0.15791 -0.646485,0.28125 -0.139055,0.12335 -0.240902,0.25444 -0.339843,0.39844 -0.197883,0.28801 -0.378388,0.63686 -0.56836,1.04492 -0.379943,0.81612 -0.782385,1.86276 -1.177734,2.92383 -0.39535,1.06107 -0.782571,2.13359 -1.111328,2.96289 -0.164379,0.41465 -0.315656,0.77019 -0.4375,1.01953 -0.121845,0.24934 -0.297203,0.41513 -0.148438,0.29688 0.148766,-0.11825 -0.05186,0.0157 -0.322265,0.0781 -0.2704,0.0624 -0.650753,0.12873 -1.091797,0.19531 -0.882089,0.13318 -2.013811,0.26832 -3.136719,0.41407 -1.122908,0.14575 -2.234437,0.30032 -3.115234,0.48633 -0.440399,0.093 -0.821257,0.19056 -1.146485,0.31835 -0.162614,0.0639 -0.311353,0.13455 -0.46289,0.24219 -0.151538,0.10764 -0.336311,0.26532 -0.419922,0.56641 -0.08361,0.30109 -0.006,0.53081 0.06836,0.70117 0.07434,0.17037 0.167057,0.30671 0.273438,0.44531 0.212761,0.2772 0.487024,0.55651 0.816406,0.86328 0.658764,0.61355 1.531003,1.32151 2.417969,2.02539 0.886966,0.70389 1.787493,1.40177 2.474609,1.97071 0.343558,0.28446 0.634502,0.53754 0.833984,0.73047 0.199483,0.19293 0.302819,0.4124 0.236328,0.23437 -0.06649,-0.17802 -0.0012,0.0536 -0.02539,0.33008 -0.02417,0.27646 -0.07743,0.65762 -0.150391,1.09766 -0.145927,0.88006 -0.367793,1.99834 -0.576172,3.11132 -0.208379,1.11299 -0.404725,2.22007 -0.5,3.11524 -0.04764,0.44758 -0.07182,0.8387 -0.05078,1.1875 0.01052,0.1744 0.03039,0.33824 0.08594,0.51562 0.05554,0.17739 0.147689,0.40166 0.408203,0.57422 0.260513,0.17256 0.504455,0.1704 0.689453,0.15235 0.184997,-0.0181 0.343124,-0.0647 0.507812,-0.12305 0.329377,-0.11669 0.680678,-0.2913 1.074219,-0.50977 0.787083,-0.43692 1.72835,-1.04778 2.671875,-1.67382 0.943525,-0.62605 1.887207,-1.26647 2.640625,-1.74415 0.376709,-0.23883 0.70604,-0.43825 0.951172,-0.56835 0.245132,-0.1301 0.484781,-0.16057 0.294922,-0.15235 -0.189859,0.008 0.05118,0.0185 0.30664,0.12695 0.255463,0.10842 0.602097,0.27706 0.998047,0.48243 0.791901,0.41074 1.787127,0.96765 2.78125,1.50976 0.994123,0.54212 1.984726,1.07027 2.806641,1.4375 0.410957,0.18362 0.777001,0.32825 1.115234,0.41602 0.169117,0.0439 0.32976,0.0761 0.515625,0.0781 0.185866,0.002 0.429212,-0.0185 0.673828,-0.21289 0.244617,-0.19444 0.317424,-0.4259 0.357422,-0.60742 0.04,-0.18152 0.04561,-0.34683 0.04102,-0.52148 -0.0092,-0.34932 -0.06814,-0.73595 -0.154297,-1.17774 -0.172321,-0.88358 -0.463742,-1.96779 -0.767578,-3.05859 -0.303836,-1.0908 -0.620319,-2.18663 -0.841797,-3.05078 -0.110739,-0.43208 -0.198111,-0.8087 -0.246094,-1.08203 -0.04798,-0.27334 -0.0038,-0.50928 -0.05469,-0.32618 -0.05085,0.18311 0.03474,-0.0445 0.216797,-0.2539 0.182053,-0.20946 0.449903,-0.48572 0.767578,-0.79883 0.635349,-0.62622 1.472141,-1.40174 2.294922,-2.17969 0.822781,-0.77794 1.631129,-1.5564 2.234375,-2.22461 0.301623,-0.3341 0.550285,-0.63708 0.738281,-0.93164 0.094,-0.14728 0.175048,-0.29064 0.234375,-0.4668 0.05933,-0.17615 0.117144,-0.41234 0.0078,-0.70507 -0.109331,-0.29273 -0.308472,-0.43517 -0.46875,-0.5293 -0.160277,-0.0941 -0.314891,-0.14962 -0.482421,-0.19922 -0.33506,-0.0992 -0.723131,-0.16222 -1.169922,-0.2168 -0.893583,-0.10915 -2.013226,-0.16868 -3.144532,-0.21679 -1.131305,-0.0481 -2.271809,-0.0842 -3.162109,-0.14063 -0.44515,-0.0282 -0.828729,-0.0627 -1.103516,-0.10156 -0.274786,-0.0388 -0.486558,-0.15377 -0.328125,-0.0488 0.158434,0.10495 -0.03088,-0.0453 -0.173828,-0.2832 -0.142947,-0.23787 -0.323821,-0.57963 -0.523437,-0.97852 -0.399233,-0.79776 -0.877665,-1.83256 -1.363281,-2.85547 -0.485617,-1.0229 -0.976694,-2.03033 -1.425782,-2.81054 -0.224544,-0.39011 -0.434205,-0.72237 -0.65625,-0.99219 -0.111022,-0.13491 -0.223847,-0.25633 -0.373047,-0.36719 -0.149199,-0.11086 -0.35578,-0.23813 -0.667968,-0.22461 z m 0.07617,1.75977 c 0.111215,0.1585 0.218781,0.30457 0.359375,0.54883 0.406339,0.70594 0.891932,1.69751 1.373046,2.71093 0.481115,1.01343 0.960622,2.05088 1.376954,2.88282 0.208166,0.41596 0.398341,0.78025 0.576171,1.07617 0.177831,0.29591 0.257789,0.50803 0.617188,0.74609 0.359399,0.23806 0.587846,0.22904 0.929687,0.27735 0.341842,0.0483 0.750629,0.0819 1.214844,0.11132 0.928431,0.0588 2.07059,0.0949 3.191406,0.14258 1.120817,0.0477 2.222727,0.10827 3.03125,0.20703 0.28047,0.0343 0.456958,0.0765 0.646485,0.11719 -0.116449,0.15494 -0.220866,0.304 -0.410156,0.51367 -0.545824,0.6046 -1.339145,1.37185 -2.154297,2.14258 -0.815153,0.77073 -1.653846,1.54618 -2.316407,2.19922 -0.33128,0.32652 -0.61727,0.62224 -0.84375,0.88281 -0.226479,0.26057 -0.404183,0.40104 -0.519531,0.81641 -0.115347,0.41537 -0.03625,0.62871 0.02344,0.96875 0.05969,0.34004 0.152096,0.74082 0.267578,1.1914 0.230964,0.90117 0.550544,1.99744 0.851562,3.07813 0.301019,1.08069 0.584317,2.14779 0.740235,2.94727 0.05397,0.27674 0.06798,0.45775 0.08789,0.65039 -0.183339,-0.0629 -0.357332,-0.11719 -0.615234,-0.23243 -0.743677,-0.33227 -1.718219,-0.84767 -2.703125,-1.38476 -0.984906,-0.53709 -1.982777,-1.09511 -2.808594,-1.52344 -0.412908,-0.21417 -0.781807,-0.39637 -1.099609,-0.53125 -0.317803,-0.13487 -0.506813,-0.25889 -0.9375,-0.24023 -0.430688,0.0186 -0.609113,0.15846 -0.914063,0.32031 -0.30495,0.16185 -0.655984,0.37593 -1.048828,0.625 -0.785687,0.49813 -1.731239,1.13953 -2.666015,1.75976 -0.934777,0.62024 -1.862058,1.2199 -2.574219,1.61524 -0.247019,0.13712 -0.414565,0.20667 -0.591797,0.28516 0.0031,-0.19395 0.0013,-0.37681 0.03125,-0.65821 0.08621,-0.80996 0.275975,-1.89537 0.482422,-2.99804 0.206447,-1.10267 0.429853,-2.22482 0.582031,-3.14258 0.07609,-0.45888 0.133996,-0.86506 0.164063,-1.20899 0.03007,-0.34392 0.09029,-0.56295 -0.06055,-0.96679 -0.150832,-0.40385 -0.339729,-0.52952 -0.587891,-0.76954 -0.248161,-0.24001 -0.559696,-0.50999 -0.917969,-0.80664 -0.716545,-0.5933 -1.619304,-1.29287 -2.498047,-1.99023 -0.878742,-0.69736 -1.73402,-1.39408 -2.330078,-1.94922 -0.207093,-0.19288 -0.3256,-0.33017 -0.455078,-0.47461 0.185374,-0.057 0.358021,-0.11538 0.634766,-0.17383 0.796955,-0.1683 1.889456,-0.32239 3.001953,-0.46679 1.112497,-0.1444 2.246148,-0.2791 3.166016,-0.41797 0.459934,-0.0694 0.86674,-0.13911 1.203125,-0.2168 0.336384,-0.0777 0.562922,-0.0892 0.90039,-0.35742 0.337469,-0.26824 0.399204,-0.48669 0.550781,-0.79688 0.151578,-0.31018 0.311003,-0.68868 0.482422,-1.12109 0.342838,-0.86481 0.72941,-1.94096 1.121094,-2.99219 0.391684,-1.05123 0.789036,-2.07992 1.132813,-2.81836 0.119249,-0.25614 0.215247,-0.41044 0.3125,-0.57812 z"
       id="path455822"
       transform="matrix(0.96029349,-0.15740222,0.15740222,0.96029349,-26.404007,39.484262)" />
    <path
       style="color:#000000;fill:#b921f8;stroke-linecap:round;stroke-linejoin:round;-inkscape-stroke:none"
       d="m 112.86133,185.60742 c -0.28373,0.0123 -0.44866,0.14033 -0.55469,0.23438 -0.10603,0.094 -0.17236,0.18318 -0.23437,0.27343 -0.12403,0.18051 -0.22368,0.37525 -0.32813,0.59961 -0.2089,0.44873 -0.42151,1.0065 -0.63086,1.56836 -0.20935,0.56186 -0.41395,1.12577 -0.58398,1.55469 -0.085,0.21446 -0.16348,0.39657 -0.22071,0.51367 -0.0572,0.11711 -0.17578,0.19276 0.0176,0.0391 0.19336,-0.15369 0.0938,-0.0547 -0.0332,-0.0254 -0.127,0.0293 -0.32267,0.0632 -0.55078,0.0977 -0.45623,0.0689 -1.05188,0.13962 -1.64649,0.2168 -0.5946,0.0772 -1.18563,0.15944 -1.66992,0.26172 -0.24214,0.0511 -0.45436,0.10544 -0.6582,0.18554 -0.10192,0.0401 -0.20281,0.0839 -0.31836,0.16602 -0.11555,0.0821 -0.27753,0.21269 -0.35352,0.48633 -0.076,0.27364 -0.004,0.4697 0.0527,0.59961 0.0567,0.1299 0.11887,0.21977 0.18554,0.30664 0.13335,0.17373 0.28765,0.32937 0.46875,0.49804 0.36221,0.33735 0.82721,0.71322 1.29688,1.08594 0.46967,0.37273 0.94344,0.7409 1.29883,1.03516 0.17769,0.14713 0.32623,0.27657 0.41992,0.36718 0.0937,0.0906 0.12939,0.22749 0.043,-0.004 -0.0864,-0.2314 -0.0238,-0.10641 -0.0352,0.0234 -0.0114,0.12984 -0.0384,0.32709 -0.0762,0.55468 -0.0755,0.45518 -0.19239,1.04346 -0.30273,1.63282 -0.11035,0.58935 -0.2152,1.17578 -0.26758,1.66796 -0.0262,0.2461 -0.0405,0.46498 -0.0273,0.6836 0.007,0.10931 0.0182,0.22021 0.0606,0.35547 0.0423,0.13525 0.11675,0.3295 0.35352,0.48633 0.23676,0.15683 0.44487,0.15048 0.58593,0.13671 0.14107,-0.0138 0.24639,-0.0474 0.34961,-0.084 0.20644,-0.0731 0.40276,-0.17285 0.61914,-0.29297 0.43276,-0.24023 0.93203,-0.56498 1.43164,-0.89648 0.49962,-0.33151 0.99705,-0.66896 1.38672,-0.91602 0.19484,-0.12353 0.36339,-0.22405 0.47852,-0.28516 0.11513,-0.0611 0.25654,-0.0517 0.01,-0.041 -0.24677,0.0107 -0.10826,-0.0119 0.0117,0.0391 0.11998,0.0509 0.29717,0.13792 0.50196,0.24414 0.40957,0.21244 0.93452,0.50591 1.46093,0.79297 0.52641,0.28706 1.052,0.56762 1.50391,0.76953 0.22596,0.10096 0.43059,0.18327 0.64258,0.23828 0.10599,0.0275 0.21374,0.0493 0.35547,0.0508 0.14172,0.002 0.34994,-0.009 0.57226,-0.18554 0.22232,-0.17672 0.28005,-0.37721 0.31055,-0.51563 0.0305,-0.13841 0.0322,-0.24795 0.0293,-0.35742 -0.006,-0.21893 -0.0405,-0.43678 -0.0879,-0.67969 -0.0948,-0.48581 -0.24927,-1.06106 -0.41016,-1.63867 -0.16089,-0.5776 -0.32881,-1.15461 -0.44336,-1.60156 -0.0573,-0.22347 -0.10051,-0.41459 -0.12305,-0.54297 -0.0225,-0.12837 0.029,-0.25948 -0.0371,-0.0215 -0.0661,0.238 -0.0425,0.0984 0.043,0 0.0855,-0.0984 0.22242,-0.24041 0.38672,-0.40235 0.32861,-0.32388 0.7694,-0.73259 1.20508,-1.14453 0.43568,-0.41194 0.86558,-0.82596 1.19727,-1.19336 0.16584,-0.1837 0.306,-0.35054 0.42382,-0.53515 0.0589,-0.0923 0.11492,-0.18795 0.16016,-0.32227 0.0452,-0.13432 0.0994,-0.33552 0,-0.60156 -0.0994,-0.26605 -0.27232,-0.3833 -0.39453,-0.45508 -0.12222,-0.0718 -0.22703,-0.10759 -0.33203,-0.13867 -0.21,-0.0622 -0.42622,-0.0969 -0.67188,-0.12696 -0.49131,-0.06 -1.08649,-0.0898 -1.68554,-0.11523 -0.59906,-0.0255 -1.19969,-0.0451 -1.66016,-0.0742 -0.23024,-0.0146 -0.42759,-0.0325 -0.55664,-0.0508 -0.12906,-0.0182 -0.23718,-0.10906 -0.0312,0.0273 0.20593,0.13641 0.0808,0.0727 0.0137,-0.0391 -0.0671,-0.11172 -0.16043,-0.28588 -0.26367,-0.49219 -0.20649,-0.41261 -0.4577,-0.95834 -0.71485,-1.5 -0.25714,-0.54165 -0.5187,-1.07883 -0.76562,-1.50781 -0.12346,-0.21449 -0.23974,-0.39925 -0.37891,-0.56836 -0.0696,-0.0845 -0.14209,-0.16742 -0.25586,-0.25195 -0.11376,-0.0845 -0.28853,-0.19784 -0.57226,-0.18555 z m 0.0859,2.00977 c 0.17819,0.3319 0.36945,0.70169 0.57226,1.1289 0.25264,0.53217 0.50493,1.07862 0.72852,1.52539 0.11179,0.22339 0.21438,0.42204 0.3164,0.5918 0.10202,0.16976 0.11974,0.29535 0.43164,0.50195 0.31191,0.2066 0.43475,0.17346 0.63086,0.20118 0.19611,0.0277 0.41867,0.0448 0.66797,0.0605 0.4986,0.0316 1.10089,0.0511 1.68946,0.0762 0.47289,0.0201 0.88642,0.0513 1.26171,0.0859 -0.26059,0.27205 -0.55284,0.56766 -0.89648,0.89258 -0.42805,0.40473 -0.87074,0.81336 -1.22656,1.16406 -0.17791,0.17536 -0.33296,0.33489 -0.46289,0.48438 -0.12993,0.14948 -0.24756,0.20397 -0.34766,0.56445 -0.1001,0.36048 -0.0284,0.46703 0.006,0.66211 0.0342,0.19508 0.0864,0.41232 0.14844,0.6543 0.12403,0.48396 0.29114,1.06337 0.44922,1.63086 0.12712,0.45638 0.22557,0.86069 0.30859,1.22851 -0.33947,-0.16383 -0.70935,-0.35341 -1.125,-0.58008 -0.51719,-0.28203 -1.04479,-0.57465 -1.48828,-0.80468 -0.22175,-0.11502 -0.4212,-0.2156 -0.60352,-0.29297 -0.18232,-0.0774 -0.2688,-0.17049 -0.64258,-0.1543 -0.37377,0.0162 -0.45396,0.11809 -0.6289,0.21094 -0.17495,0.0928 -0.3652,0.20804 -0.57617,0.3418 -0.42195,0.26751 -0.92124,0.60594 -1.41211,0.93164 -0.39462,0.26183 -0.74817,0.48123 -1.07227,0.67382 0.0509,-0.37358 0.11596,-0.78441 0.20313,-1.25 0.10841,-0.57903 0.22491,-1.17119 0.30664,-1.66406 0.0409,-0.24643 0.0726,-0.46675 0.0898,-0.66406 0.0173,-0.19731 0.0801,-0.30968 -0.0508,-0.66016 -0.1309,-0.35047 -0.25216,-0.39551 -0.39453,-0.5332 -0.14237,-0.13769 -0.3115,-0.28209 -0.50391,-0.44141 -0.38481,-0.31862 -0.86082,-0.68849 -1.32226,-1.05468 -0.37046,-0.294 -0.68756,-0.56205 -0.97071,-0.81055 0.3708,-0.0669 0.78084,-0.13442 1.25,-0.19531 0.5842,-0.0758 1.18373,-0.14613 1.67774,-0.22071 0.247,-0.0373 0.46522,-0.0746 0.6582,-0.11914 0.19298,-0.0446 0.32041,-0.0211 0.61328,-0.2539 0.29287,-0.2328 0.29781,-0.36112 0.38477,-0.53907 0.087,-0.17794 0.17356,-0.38301 0.26562,-0.61523 0.18412,-0.46444 0.38807,-1.03196 0.59375,-1.58398 0.16507,-0.44302 0.32191,-0.82781 0.47071,-1.17383 z"
       id="path455824"
       transform="matrix(0.96029349,-0.15740222,0.15740222,0.96029349,-26.404007,39.484262)" />
  </g>
</svg>
